<svg width="274" height="278" viewBox="0 0 274 278" fill="none" xmlns="http://www.w3.org/2000/svg">
<path d="M178.979 268.161L173.903 269.316L167.031 250.284L174.524 248.579L178.979 268.161Z" fill="#FFB6B6"/>
<path d="M180.363 273.417L164.751 276.969L164.706 276.771C164.339 275.16 164.628 273.468 165.508 272.07C166.388 270.671 167.788 269.679 169.4 269.312L169.4 269.312L171.759 266.5L177.572 267.452L178.935 267.142L180.363 273.417Z" fill="#2F2E41"/>
<path d="M260.875 175.391L263.666 179.786L248.041 192.644L243.922 186.157L260.875 175.391Z" fill="#FFB6B6"/>
<path d="M265.362 172.324L273.946 185.84L273.775 185.949C272.379 186.835 270.689 187.13 269.076 186.77C267.463 186.41 266.059 185.424 265.173 184.029L265.173 184.029L261.732 182.75L260.68 176.954L259.931 175.774L265.362 172.324Z" fill="#2F2E41"/>
<path d="M99.0468 128.401L97.793 121.133L116.856 112.525L120.973 105.236C120.84 104.597 120.886 103.933 121.107 103.318C121.328 102.703 121.714 102.161 122.224 101.752C122.733 101.343 123.345 101.083 123.993 101C124.641 100.917 125.3 101.015 125.896 101.283C126.491 101.55 127.002 101.978 127.37 102.517C127.738 103.057 127.95 103.688 127.982 104.34C128.015 104.993 127.866 105.641 127.553 106.215C127.239 106.788 126.774 107.263 126.207 107.589L119.435 118.059L99.0468 128.401Z" fill="#A0616A"/>
<path d="M93.251 122.46L101.836 118.075L104.108 126.608L98.1452 131.028L93.251 122.46Z" fill="#53B88C"/>
<path d="M73.9885 267.5L79.179 267.5L81.6483 247.479L73.9873 247.479L73.9885 267.5Z" fill="#A0616A"/>
<path d="M80.9055 267.968V264.449L79.5409 264.532L73.9861 264.861L72.7005 264.94L71.7177 276.725L71.665 277.357H75.3507L75.4692 276.73L76.0045 273.878L77.3866 276.73L77.6893 277.357H87.4607C88.0422 277.354 88.5987 277.121 89.0095 276.709C89.4202 276.297 89.6521 275.74 89.6546 275.159C90.067 273.233 81.941 269.069 80.9055 267.968Z" fill="#2F2E41"/>
<path d="M12.3731 188.044L11.1631 193.092L30.0568 200.162L31.8425 192.712L12.3731 188.044Z" fill="#A0616A"/>
<path d="M10.7169 194.663L14.1389 195.483L14.376 194.137L15.3511 188.658L15.5741 187.39L4.34272 183.686L3.74057 183.488L2.88122 187.072L3.46374 187.333L6.11233 188.519L3.01667 189.198L2.33594 189.346L0.0576451 198.848C-0.0743497 199.414 0.0223763 200.01 0.326838 200.505C0.6313 201.001 1.1189 201.356 1.68376 201.494C3.46071 202.344 9.40453 195.413 10.7169 194.663Z" fill="#2F2E41"/>
<path d="M82.014 137.924L75.3328 134.801L62.0092 150.925L53.8935 152.978C53.3115 152.681 52.6588 152.551 52.0075 152.602C51.3562 152.653 50.7317 152.883 50.2029 153.267C49.6742 153.65 49.2618 154.173 49.0112 154.776C48.7607 155.379 48.6818 156.04 48.7832 156.685C48.8847 157.331 49.1626 157.935 49.5861 158.433C50.0097 158.93 50.5625 159.301 51.1835 159.504C51.8045 159.707 52.4694 159.734 53.1049 159.583C53.7405 159.431 54.3218 159.107 54.7847 158.646L66.6686 154.87L82.014 137.924Z" fill="#A0616A"/>
<path d="M176.735 78.2352C175.318 78.2352 173.934 77.8152 172.757 77.0284C171.579 76.2416 170.661 75.1233 170.119 73.8149C169.577 72.5065 169.436 71.0667 169.712 69.6777C169.988 68.2887 170.67 67.0129 171.671 66.0114C172.673 65.01 173.949 64.3281 175.338 64.0518C176.727 63.7755 178.167 63.9173 179.475 64.4593C180.783 65.0012 181.902 65.919 182.688 67.0965C183.475 68.2741 183.895 69.6585 183.895 71.0747C183.893 72.9731 183.138 74.7932 181.796 76.1356C180.453 77.478 178.633 78.2331 176.735 78.2352ZM176.735 64.7359C175.481 64.7359 174.255 65.1077 173.213 65.8042C172.171 66.5007 171.358 67.4907 170.878 68.6489C170.399 69.8072 170.273 71.0817 170.518 72.3113C170.762 73.5409 171.366 74.6704 172.253 75.5569C173.139 76.4434 174.268 77.0471 175.498 77.2916C176.728 77.5362 178.002 77.4107 179.16 76.9309C180.319 76.4512 181.309 75.6387 182.005 74.5963C182.702 73.5539 183.073 72.3284 183.073 71.0747C183.072 69.3941 182.403 67.7829 181.215 66.5946C180.026 65.4063 178.415 64.7378 176.735 64.7359Z" fill="#83C0A5"/>
<path d="M176.23 73.7723C176.216 73.7723 176.202 73.7719 176.187 73.7712C176.06 73.765 175.936 73.7315 175.823 73.6728C175.71 73.6141 175.611 73.5317 175.533 73.4312L174.405 71.9811C174.334 71.8895 174.281 71.7849 174.25 71.673C174.22 71.5612 174.211 71.4444 174.226 71.3293C174.24 71.2142 174.277 71.1031 174.334 71.0023C174.391 70.9015 174.468 70.8129 174.56 70.7417L174.6 70.7101C174.692 70.6388 174.797 70.5863 174.908 70.5555C175.02 70.5247 175.137 70.5163 175.252 70.5307C175.367 70.5451 175.478 70.582 175.579 70.6394C175.68 70.6967 175.769 70.7734 175.84 70.865C175.897 70.9382 175.969 70.9982 176.051 71.0409C176.134 71.0836 176.224 71.1081 176.317 71.1126C176.409 71.1171 176.502 71.1015 176.588 71.067C176.674 71.0325 176.751 70.9798 176.815 70.9125L179.106 68.4947C179.267 68.3249 179.489 68.2259 179.723 68.2196C179.957 68.2132 180.184 68.2999 180.354 68.4607L180.392 68.4965C180.476 68.5763 180.544 68.6718 180.591 68.7777C180.638 68.8837 180.664 68.9978 180.667 69.1138C180.67 69.2297 180.651 69.3452 180.609 69.4535C180.568 69.5618 180.505 69.6608 180.425 69.745L176.871 73.4965C176.789 73.5836 176.689 73.653 176.579 73.7005C176.469 73.7479 176.35 73.7724 176.23 73.7723Z" fill="#83C0A5"/>
<path d="M140.99 164.928C139.573 164.928 138.189 164.508 137.011 163.722C135.834 162.935 134.916 161.816 134.374 160.508C133.832 159.2 133.69 157.76 133.967 156.371C134.243 154.982 134.925 153.706 135.926 152.705C136.928 151.703 138.204 151.021 139.593 150.745C140.982 150.469 142.421 150.61 143.73 151.152C145.038 151.694 146.157 152.612 146.943 153.79C147.73 154.967 148.15 156.352 148.15 157.768C148.148 159.666 147.393 161.486 146.05 162.829C144.708 164.171 142.888 164.926 140.99 164.928ZM140.99 151.429C139.736 151.429 138.51 151.801 137.468 152.497C136.426 153.194 135.613 154.184 135.133 155.342C134.654 156.5 134.528 157.775 134.773 159.004C135.017 160.234 135.621 161.363 136.507 162.25C137.394 163.136 138.523 163.74 139.753 163.985C140.983 164.229 142.257 164.104 143.415 163.624C144.574 163.144 145.564 162.332 146.26 161.289C146.957 160.247 147.328 159.021 147.328 157.768C147.326 156.087 146.658 154.476 145.47 153.288C144.281 152.099 142.67 151.431 140.99 151.429Z" fill="#83C0A5"/>
<path d="M140.484 160.465C140.47 160.465 140.455 160.465 140.441 160.464C140.314 160.458 140.19 160.425 140.077 160.366C139.964 160.307 139.865 160.225 139.787 160.124L138.659 158.674C138.588 158.583 138.535 158.478 138.504 158.366C138.474 158.254 138.465 158.138 138.479 158.022C138.494 157.907 138.531 157.796 138.588 157.695C138.645 157.595 138.722 157.506 138.814 157.435L138.854 157.403C138.946 157.332 139.05 157.279 139.162 157.249C139.274 157.218 139.391 157.209 139.506 157.224C139.621 157.238 139.732 157.275 139.833 157.332C139.934 157.39 140.023 157.467 140.094 157.558C140.151 157.631 140.223 157.691 140.305 157.734C140.387 157.777 140.478 157.801 140.571 157.806C140.663 157.81 140.756 157.795 140.842 157.76C140.928 157.726 141.005 157.673 141.069 157.606L143.359 155.188C143.521 155.018 143.743 154.919 143.977 154.913C144.211 154.906 144.438 154.993 144.608 155.154L144.646 155.19C144.73 155.269 144.797 155.365 144.845 155.471C144.892 155.577 144.918 155.691 144.921 155.807C144.924 155.923 144.904 156.038 144.863 156.147C144.821 156.255 144.759 156.354 144.679 156.438L141.125 160.19C141.043 160.277 140.943 160.346 140.833 160.394C140.723 160.441 140.604 160.465 140.484 160.465Z" fill="#83C0A5"/>
<path d="M62.514 68.3743C61.0978 68.3743 59.7134 67.9544 58.5359 67.1676C57.3583 66.3808 56.4405 65.2625 55.8986 63.954C55.3566 62.6456 55.2148 61.2059 55.4911 59.8169C55.7674 58.4279 56.4494 57.152 57.4508 56.1506C58.4522 55.1492 59.7281 54.4672 61.1171 54.1909C62.5061 53.9146 63.9458 54.0564 65.2542 54.5984C66.5626 55.1404 67.6809 56.0581 68.4678 57.2357C69.2546 58.4132 69.6745 59.7976 69.6745 61.2138C69.6724 63.1123 68.9173 64.9323 67.5749 66.2747C66.2325 67.6171 64.4124 68.3722 62.514 68.3743ZM62.514 54.8751C61.2603 54.8751 60.0348 55.2469 58.9924 55.9434C57.95 56.6399 57.1375 57.6299 56.6578 58.7881C56.178 59.9464 56.0525 61.2209 56.2971 62.4505C56.5416 63.6801 57.1454 64.8095 58.0318 65.696C58.9183 66.5825 60.0478 67.1862 61.2774 67.4308C62.507 67.6754 63.7815 67.5499 64.9398 67.0701C66.098 66.5903 67.088 65.7779 67.7845 64.7355C68.481 63.6931 68.8528 62.4675 68.8528 61.2138C68.8509 59.5333 68.1824 57.9221 66.9941 56.7338C65.8058 55.5454 64.1946 54.877 62.514 54.8751Z" fill="#83C0A5"/>
<path d="M62.0087 63.9115C61.9943 63.9115 61.9799 63.911 61.9655 63.9103C61.8384 63.9042 61.7141 63.8706 61.6012 63.812C61.4882 63.7533 61.3893 63.6709 61.3112 63.5704L60.1832 62.1202C60.112 62.0287 60.0595 61.924 60.0287 61.8122C59.9979 61.7004 59.9895 61.5836 60.0039 61.4685C60.0183 61.3534 60.0552 61.2423 60.1125 61.1414C60.1698 61.0406 60.2465 60.9521 60.338 60.8809L60.3786 60.8493C60.4701 60.778 60.5748 60.7255 60.6867 60.6947C60.7985 60.6639 60.9154 60.6555 61.0305 60.6698C61.1456 60.6842 61.2568 60.7212 61.3576 60.7785C61.4585 60.8359 61.547 60.9126 61.6182 61.0042C61.6752 61.0773 61.7473 61.1373 61.8295 61.18C61.9118 61.2228 62.0024 61.2472 62.095 61.2517C62.1876 61.2562 62.2801 61.2407 62.3662 61.2062C62.4522 61.1716 62.5298 61.1189 62.5936 61.0517L64.8838 58.6338C65.0451 58.464 65.2671 58.3651 65.5011 58.3587C65.7352 58.3524 65.9622 58.4391 66.1324 58.5999L66.17 58.6357C66.2542 58.7154 66.3219 58.811 66.3692 58.9169C66.4164 59.0228 66.4424 59.137 66.4455 59.2529C66.4486 59.3689 66.4289 59.4843 66.3874 59.5926C66.3459 59.7009 66.2835 59.8 66.2037 59.8842L62.6495 63.6357C62.5671 63.7228 62.4677 63.7922 62.3575 63.8396C62.2473 63.8871 62.1286 63.9115 62.0087 63.9115Z" fill="#83C0A5"/>
<path d="M97.0635 66.9727C98.9804 66.9727 100.534 64.889 100.534 62.3186C100.534 59.7483 98.9804 57.6646 97.0635 57.6646C95.1467 57.6646 93.5928 59.7483 93.5928 62.3186C93.5928 64.889 95.1467 66.9727 97.0635 66.9727Z" fill="#83C0A5"/>
<path d="M137.15 139.577C135.564 140.634 133.94 138.118 135.557 137.108C137.144 136.051 138.768 138.567 137.15 139.577Z" fill="#83C0A5"/>
<path opacity="0.3" d="M143.826 75.1103L169.544 0L141.304 74.2112C141.164 74.3873 141.069 74.5943 141.025 74.8148C140.981 75.0353 140.991 75.263 141.053 75.4791C141.115 75.6952 141.227 75.8935 141.381 76.0574C141.535 76.2213 141.725 76.3462 141.937 76.4217C142.149 76.4972 142.376 76.5211 142.599 76.4915C142.821 76.4618 143.034 76.3795 143.219 76.2513C143.403 76.1231 143.555 75.9527 143.66 75.7543C143.766 75.5558 143.823 75.3351 143.826 75.1103H143.826Z" fill="#F0F0F0"/>
<path d="M117.867 166.617C120.295 166.617 122.264 164.648 122.264 162.219C122.264 159.791 120.295 157.822 117.867 157.822C115.438 157.822 113.47 159.791 113.47 162.219C113.47 164.648 115.438 166.617 117.867 166.617Z" fill="#83C0A5"/>
<path d="M75.2789 163.897C75.2789 163.897 64.3167 171.035 67.2153 175.778C67.3153 175.942 54.1211 193.368 54.1211 193.368L29.2135 191.787L28.3359 200.123L50.5104 206.545C50.5104 206.545 55.9352 210.531 60.1259 206.14C64.3167 201.749 78.2757 188.302 78.2757 188.302L78.949 215.451L71.9416 253.071L82.4044 252.407L92.5879 214.665L96.3468 171.912L75.2789 163.897Z" fill="#2F2E41"/>
<path d="M83.086 121.056L78.4762 124.549L73.222 135.764L78.2744 142.625C78.2744 142.625 82.5243 149.991 75.7217 157.124C68.919 164.257 63.6953 171.875 69.1401 171.603C74.585 171.331 96.6375 182.547 96.7826 173.358C96.9277 164.169 97.2213 157.124 97.2213 157.124L103.003 142.46C103.003 142.46 106.448 133.712 104.029 131.093C101.611 128.474 98.3726 125.128 98.3726 125.128L92.4841 119.24H87.167L83.086 121.056Z" fill="#53B88C"/>
<path d="M91.6921 99.5094C102.034 105.394 93.5437 120.921 83.0092 115.392C72.6678 109.508 81.1579 93.9805 91.6921 99.5094Z" fill="#A0616A"/>
<path d="M97.2222 102.772C96.4976 103.715 94.9837 103.273 92.0189 103.946C92.0254 102.941 91.9093 101.939 91.6732 100.962C91.4526 102.171 90.9692 103.318 90.2571 104.32C87.6827 104.605 90.8385 112.426 89.5204 118.176C87.8221 106.045 84.25 109.223 86.0546 111.63C87.2099 113.17 86.4397 117.791 82.9738 115.48C77.2554 118.198 69.1106 104.698 78.1375 98.3665C77.9762 94.9442 81.7842 94.4035 84.1291 95.4557C89.8199 91.2165 96.3216 96.6484 97.2222 102.772Z" fill="#2F2E41"/>
<path d="M70.6876 93.9207C68.3852 108.077 56.0442 91.3172 50.2416 105.248C48.4171 110.293 51.5474 113.902 53.5274 118.09C53.9793 121.532 49.5023 123.278 49.0333 126.445C48.9028 133.708 60.6197 133.264 63.8953 128.682C67.261 123.885 63.2419 117.449 65.2649 112.301C68.1082 105.153 79.6714 105.1 80.6788 96.7836C78.7278 94.0054 73.4819 90.8235 70.6876 93.9207Z" fill="#2F2E41"/>
<path d="M80.0152 95.3041C79.9398 95.3358 79.8645 95.3675 79.7971 95.4032H79.7931C79.7297 95.4349 79.6663 95.4666 79.6029 95.5023C79.5949 95.5063 79.591 95.5102 79.583 95.5142C79.4998 95.4349 79.4166 95.3556 79.3293 95.2763C79.3068 95.4055 79.3122 95.5379 79.3452 95.6648L79.3571 95.7124C79.4364 95.7957 79.5196 95.875 79.6068 95.9582C79.6861 95.8987 79.7615 95.8353 79.8407 95.7758C79.8883 95.7362 79.9359 95.6965 79.9874 95.6569C79.9953 95.5538 80.0072 95.4349 80.0191 95.3041L80.0152 95.3041ZM82.4017 90.8957C80.6336 90.4913 80.0627 92.8025 79.8922 93.9165C79.25 89.8729 76.578 91.1454 77.5017 93.9046C77.7962 94.7215 78.2595 95.4672 78.8615 96.093C78.9448 96.1881 79.036 96.2833 79.1311 96.3784C79.0241 96.9334 79.5632 96.7907 80.2927 96.2793C80.8313 95.8962 81.3294 95.4592 81.7793 94.975C83.2342 93.4487 84.3681 91.4071 82.4017 90.8957ZM82.4572 93.1712C81.9117 93.8746 81.2997 94.5238 80.6296 95.1098C80.4195 95.3001 80.2054 95.4825 79.9874 95.6569C79.9834 95.6926 79.9834 95.7243 79.9795 95.752C79.9642 95.7906 79.9456 95.8277 79.924 95.863C79.702 96.2634 79.4522 96.0454 79.3571 95.7124C79.3491 95.7005 79.3373 95.6886 79.3293 95.6767C79.0125 95.3495 78.7369 94.9847 78.5087 94.5905C76.8714 91.752 79.5077 89.8213 79.3769 95.1217C79.3528 95.1703 79.3367 95.2225 79.3293 95.2763C79.3068 95.4055 79.3122 95.538 79.3452 95.6648L79.3571 95.7124C79.4364 95.7957 79.5196 95.875 79.6068 95.9582C79.6861 95.8987 79.7615 95.8353 79.8407 95.7758C79.8883 95.7362 79.9359 95.6965 79.9874 95.6569C79.9953 95.5538 80.0072 95.4349 80.0191 95.3041V95.3001C80.1222 94.2377 80.4037 92.3268 80.923 91.8075C82.0648 90.9313 83.5435 91.8788 82.4572 93.1712ZM80.0152 95.3041C79.9398 95.3358 79.8645 95.3675 79.7971 95.4032H79.7931C79.7297 95.4349 79.6663 95.4666 79.6029 95.5023C79.5949 95.5063 79.591 95.5102 79.583 95.5142C79.4998 95.4349 79.4166 95.3556 79.3293 95.2763C79.3068 95.4055 79.3122 95.5379 79.3452 95.6648L79.3571 95.7124C79.4364 95.7957 79.5196 95.875 79.6068 95.9582C79.6861 95.8987 79.7615 95.8353 79.8407 95.7758C79.8883 95.7362 79.9359 95.6965 79.9874 95.6569C79.9953 95.5538 80.0072 95.4349 80.0191 95.3041L80.0152 95.3041Z" fill="#2F2E41"/>
<path d="M175.6 173.352L171.781 183.313L153.863 218.656L169.607 259.77L177.732 257.626L171.035 218.656L190.249 195.311L213.067 210.787C213.067 210.787 223.187 218.687 227.037 211.197C230.886 203.708 255.797 187.778 255.797 187.778L249.634 181.204L220.948 194.629L201.149 166.76L175.6 173.352Z" fill="#2F2E41"/>
<path d="M194.872 126.368L188.584 119.613L177.799 118.129L164.584 127.38L164.717 137.62L171.25 161.75C171.25 161.75 168.762 179.087 175.712 178.913C182.662 178.739 186.451 175.274 189.281 175.979C192.112 176.684 204.146 179.686 204.908 176.542C205.671 173.398 209.724 175.649 209.546 172.674C209.369 169.7 198.573 148.258 198.573 148.258L201.257 126.814L194.872 126.368Z" fill="#53B88C"/>
<path d="M234.683 95.273C234.74 95.8332 234.672 96.399 234.486 96.9304C234.3 97.4618 234 97.9459 233.607 98.3487C233.213 98.7515 232.736 99.0631 232.21 99.2617C231.683 99.4602 231.119 99.5408 230.557 99.4978L216.099 126.996L212.217 121.037L226.995 95.0846C227.13 94.1463 227.604 93.2901 228.328 92.6781C229.052 92.0661 229.975 91.7409 230.923 91.7641C231.871 91.7873 232.777 92.1574 233.47 92.8041C234.163 93.4508 234.595 94.3293 234.683 95.273Z" fill="#FFB6B6"/>
<path d="M189.165 131.481C189.165 131.481 188.591 136.372 194.098 137.583C199.604 138.794 214.86 130.077 217.361 128.745C218.144 128.329 219.207 126.285 220.297 123.674C220.786 122.502 221.281 121.216 221.759 119.911C222.036 119.156 223.36 118.95 223.621 118.202C223.88 117.457 223.076 116.169 223.31 115.468C224.424 112.136 225.213 109.494 225.213 109.494L221.564 102.638C216.46 105.337 213.842 111.28 211.916 118.128L189.165 131.481Z" fill="#53B88C"/>
<path d="M124.856 101.588C124.941 102.144 125.148 102.675 125.461 103.143C125.774 103.611 126.186 104.005 126.668 104.296C127.15 104.588 127.689 104.77 128.249 104.83C128.809 104.891 129.375 104.828 129.908 104.646L150.788 127.65L153.055 120.909L132.252 99.4814C131.887 98.6067 131.213 97.8964 130.359 97.485C129.505 97.0737 128.53 96.9899 127.618 97.2495C126.706 97.5092 125.922 98.0942 125.413 98.8938C124.903 99.6934 124.705 100.652 124.856 101.588Z" fill="#FFB6B6"/>
<path d="M177.986 125.252C177.986 125.252 179.766 129.844 174.737 132.395C169.709 134.945 152.757 130.323 150.003 129.66C149.14 129.452 147.6 127.74 145.891 125.485C145.124 124.473 144.323 123.352 143.533 122.208C143.077 121.546 141.743 121.678 141.303 121.018C140.866 120.362 141.323 118.914 140.92 118.294C139.008 115.347 137.582 112.986 137.582 112.986L139.4 105.435C145.017 106.771 149.039 111.87 152.617 118.018L177.986 125.252Z" fill="#53B88C"/>
<path d="M183.407 116.411C189.075 116.411 193.669 111.816 193.669 106.149C193.669 100.481 189.075 95.8868 183.407 95.8868C177.74 95.8868 173.146 100.481 173.146 106.149C173.146 111.816 177.74 116.411 183.407 116.411Z" fill="#FFB6B6"/>
<path d="M195.122 100.273C194.042 98.6031 192.017 97.4901 190.053 97.8028C189.87 96.5496 189.347 95.3706 188.541 94.3941C187.734 93.4176 186.675 92.681 185.479 92.2646C184.283 91.8483 182.996 91.768 181.757 92.0327C180.519 92.2973 179.377 92.8967 178.455 93.7655C178.152 93.5521 177.799 93.4206 177.43 93.3837C177.062 93.3468 176.689 93.4058 176.35 93.5548C175.674 93.8621 175.086 94.3341 174.64 94.9275C173.513 96.3327 172.789 98.0171 172.543 99.8015C172.298 101.586 172.541 103.404 173.246 105.061C173.006 104.188 173.881 103.368 174.764 103.172C175.647 102.976 176.574 103.161 177.47 103.034C178.618 102.87 179.65 102.204 180.8 102.054C181.775 101.991 182.754 102.117 183.681 102.425C184.608 102.732 185.585 102.864 186.561 102.811C187.529 102.696 188.776 106.364 188.759 108.948C188.756 109.438 188.857 110.066 189.335 110.17C189.924 110.298 190.266 109.485 190.827 109.263C191.085 109.189 191.362 109.218 191.6 109.344C191.837 109.471 192.016 109.684 192.099 109.94C192.17 110.2 192.178 110.473 192.121 110.736C192.065 111 191.947 111.246 191.776 111.455C191.432 111.868 191.022 112.223 190.564 112.506L190.795 112.698C191.015 112.93 191.308 113.078 191.624 113.117C191.941 113.157 192.261 113.085 192.53 112.914C193.06 112.555 193.489 112.067 193.776 111.495C194.859 109.821 195.632 107.967 196.061 106.02C196.423 104.065 196.201 101.943 195.122 100.273Z" fill="#2F2E41"/>
<path d="M215.076 276.923C214.761 277.857 34.7708 277.857 34.4307 276.926C34.7455 275.99 214.736 275.99 215.076 276.923Z" fill="#CCCCCC"/>
</svg>
