<svg width="424" height="324" viewBox="0 0 424 324" fill="none" xmlns="http://www.w3.org/2000/svg">
<path d="M219.227 0C212.801 0 206.639 2.52856 202.096 7.02943C197.552 11.5303 195 17.6348 195 24C195 30.3652 197.552 36.4697 202.096 40.9706C206.639 45.4714 212.801 48 219.227 48H399.773C406.199 48 412.361 45.4714 416.904 40.9706C421.448 36.4697 424 30.3652 424 24C424 17.6348 421.448 11.5303 416.904 7.02943C412.361 2.52856 406.199 0 399.773 0H219.227Z" fill="#E5E5E5"/>
<path d="M219.307 5C214.186 5 209.275 7.00178 205.655 10.565C202.034 14.1282 200 18.9609 200 24C200 29.0391 202.034 33.8718 205.655 37.435C209.275 40.9982 214.186 43 219.307 43H399.693C404.814 43 409.725 40.9982 413.345 37.435C416.966 33.8718 419 29.0391 419 24C419 18.9609 416.966 14.1282 413.345 10.565C409.725 7.00178 404.814 5 399.693 5H219.307Z" fill="white"/>
<path d="M63.8797 134.603C63.6545 134.107 63.43 133.609 63.2061 133.11C63.2924 133.113 63.3778 133.125 63.4641 133.128L63.8797 134.603Z" fill="#2F2E41"/>
<path d="M199.946 271.413C193.675 241.091 185.836 230.981 185.836 230.981L182.842 228.659L179.24 225.862L179.258 225.502L178.403 225.212L178.203 225.056L177.874 224.803L177.821 224.86L177.709 224.976L161.413 219.436L140.738 212.414L131.164 199.969C129.605 197.943 127.597 196.305 125.299 195.184C123.001 194.063 120.474 193.489 117.917 193.508L87.341 193.734C83.2068 193.765 79.2336 195.341 76.2024 198.152L56.1054 216.794L24.7903 231.75L24.7375 231.697L24.4086 231.932L19.5702 234.245L19.7698 235.285L16.7751 237.446C16.7751 237.446 8.9361 246.852 2.66486 275.067C1.06952 282.246 0.284241 297.646 0.000796538 316.623C-0.0134409 317.583 0.16331 318.537 0.520767 319.428C0.878223 320.319 1.40926 321.13 2.08299 321.814C2.75672 322.498 3.55971 323.041 4.44527 323.412C5.33083 323.783 6.28129 323.974 7.24139 323.974H174.501L195.377 323.974C196.337 323.974 197.287 323.783 198.172 323.412C199.057 323.042 199.859 322.499 200.533 321.816C201.206 321.133 201.738 320.323 202.096 319.433C202.454 318.543 202.631 317.59 202.618 316.631C202.341 295.981 201.556 279.199 199.946 271.413Z" fill="#3F3D56"/>
<path d="M107.431 182.021C129.554 182.021 147.488 164.087 147.488 141.964C147.488 119.841 129.554 101.907 107.431 101.907C85.3075 101.907 67.3732 119.841 67.3732 141.964C67.3732 164.087 85.3075 182.021 107.431 182.021Z" fill="#9E616A"/>
<path d="M66.2592 103.728C68.2852 102.112 70.6531 100.625 73.2435 100.709C75.8337 100.792 78.4604 103.132 77.9238 105.667C82.6816 97.2429 90.2546 90.7638 99.3135 87.367C108.372 83.9701 118.338 83.8726 127.462 87.0915C133.9 89.3629 140.213 93.9069 141.692 100.572C142.072 102.282 142.153 104.158 143.222 105.548C144.568 107.299 147.145 107.696 149.267 107.079C149.289 107.073 149.31 107.067 149.331 107.061C149.689 106.938 150.076 106.926 150.442 107.026C150.807 107.126 151.134 107.333 151.38 107.621C151.627 107.909 151.781 108.264 151.823 108.64C151.866 109.017 151.794 109.397 151.618 109.732L149.796 113.13C152.092 113.641 154.478 113.591 156.751 112.982C157.128 112.883 157.527 112.903 157.893 113.04C158.258 113.176 158.573 113.423 158.793 113.745C159.013 114.067 159.127 114.45 159.121 114.84C159.115 115.23 158.989 115.609 158.759 115.925C152.752 124.171 142.718 129.496 132.477 129.434C125.199 129.389 117.846 126.881 110.762 128.555C108.022 129.202 105.462 130.455 103.269 132.221C101.076 133.987 99.3059 136.222 98.0892 138.761C96.8726 141.301 96.2399 144.08 96.2375 146.896C96.2352 149.712 96.8633 152.492 98.0757 155.033C95.8997 152.653 91.6932 153.217 89.4672 155.55C87.2414 157.884 86.6652 161.367 86.8895 164.584C87.2324 169.505 89.1603 174.142 91.1927 178.654C74.1528 178.118 58.0358 166.165 52.6108 149.997C47.163 133.763 52.8725 114.407 66.2592 103.728Z" fill="#2F2E41"/>
<path opacity="0.2" d="M39.4268 262.259L50.6619 323.388L57.4033 323.974L39.4268 262.259Z" fill="black"/>
<path opacity="0.2" d="M163.185 257.649L151.95 323.343L145.208 323.974L163.185 257.649Z" fill="black"/>
<path d="M75.8419 83.1556C73.6878 84.0551 71.44 83.0693 70.4973 80.8117C69.5402 78.5196 70.4341 76.1929 72.6228 75.2789C74.8117 74.3649 77.0195 75.3531 77.992 77.6822C78.95 79.9763 78.0658 82.227 75.8419 83.1556ZM71.7154 70.7673L70.0026 71.4826C69.5747 71.6591 69.0961 71.6686 68.6616 71.5092C68.227 71.3498 67.8681 71.0331 67.6558 70.6218L67.5711 70.4561C65.7281 67.1323 65.5171 63.0928 66.9472 58.456C68.2721 54.2965 68.8223 51.3712 67.7157 48.721C66.4362 45.6569 63.7041 44.697 60.22 46.0875C58.8687 46.6517 58.4387 46.6427 57.3753 47.6976C57.144 47.9299 56.8683 48.1132 56.5646 48.2366C56.2609 48.36 55.9355 48.421 55.6077 48.4159C55.2909 48.4122 54.978 48.3447 54.6878 48.2175C54.3976 48.0902 54.136 47.9058 53.9186 47.6753C53.4997 47.231 53.2651 46.6444 53.262 46.0338C53.2589 45.4233 53.4876 44.8343 53.902 44.3858C55.6894 42.5148 57.8452 41.0345 60.2335 40.0385C67.7193 36.9126 71.4877 41.5275 73.2122 45.6573C74.8989 49.6968 73.9501 53.4447 72.4256 58.2987C71.148 62.332 71.2224 65.3206 72.6737 68.2923C72.7784 68.5169 72.8367 68.7605 72.845 69.0082C72.8534 69.256 72.8115 69.5028 72.722 69.734C72.6325 69.9652 72.4972 70.1759 72.3242 70.3534C72.1513 70.531 71.9442 70.6718 71.7155 70.7673L71.7154 70.7673Z" fill="#53B88C"/>
<path d="M259.133 36H222.879C222.764 36.0009 222.65 35.9757 222.543 35.9258C222.437 35.876 222.34 35.8025 222.258 35.7095C222.176 35.6166 222.111 35.506 222.067 35.3843C222.023 35.2625 222 35.1319 222 35C222 34.8681 222.023 34.7375 222.067 34.6157C222.111 34.494 222.176 34.3834 222.258 34.2905C222.34 34.1975 222.437 34.124 222.543 34.0742C222.65 34.0243 222.764 33.9991 222.879 34H259.133C259.363 34.0018 259.584 34.108 259.746 34.2953C259.909 34.4826 260 34.736 260 35C260 35.264 259.909 35.5174 259.746 35.7047C259.584 35.892 259.363 35.9982 259.133 36Z" fill="#53B88C"/>
<path d="M305.121 36H268.879C268.764 36.0009 268.65 35.9757 268.543 35.9258C268.436 35.876 268.339 35.8025 268.258 35.7095C268.176 35.6166 268.111 35.506 268.067 35.3843C268.023 35.2625 268 35.1319 268 35C268 34.8681 268.023 34.7375 268.067 34.6157C268.111 34.494 268.176 34.3834 268.258 34.2905C268.339 34.1975 268.436 34.124 268.543 34.0742C268.65 34.0243 268.764 33.9991 268.879 34H305.121C305.236 33.9991 305.35 34.0243 305.457 34.0742C305.564 34.124 305.661 34.1975 305.742 34.2905C305.824 34.3834 305.889 34.494 305.933 34.6157C305.977 34.7375 306 34.8681 306 35C306 35.1319 305.977 35.2625 305.933 35.3843C305.889 35.506 305.824 35.6166 305.742 35.7095C305.661 35.8025 305.564 35.876 305.457 35.9258C305.35 35.9757 305.236 36.0009 305.121 36Z" fill="#53B88C"/>
<path d="M350.121 36H313.867C313.637 35.9991 313.416 35.946 313.254 35.8523C313.091 35.7587 313 35.632 313 35.5C313 35.368 313.091 35.2413 313.254 35.1476C313.416 35.054 313.637 35.0009 313.867 35H350.121C350.236 34.9996 350.35 35.0122 350.457 35.0371C350.563 35.062 350.66 35.0988 350.742 35.1452C350.824 35.1917 350.889 35.247 350.933 35.3079C350.977 35.3688 351 35.434 351 35.5C351 35.5659 350.977 35.6312 350.933 35.6921C350.889 35.753 350.824 35.8083 350.742 35.8548C350.66 35.9012 350.563 35.938 350.457 35.9629C350.35 35.9878 350.236 36.0004 350.121 36H350.121Z" fill="#53B88C"/>
<path d="M396.132 37H359.868C359.637 36.9982 359.416 36.892 359.254 36.7047C359.091 36.5174 359 36.264 359 36C359 35.7359 359.091 35.4826 359.254 35.2953C359.416 35.1079 359.637 35.0018 359.868 35H396.132C396.363 35.0018 396.584 35.1079 396.746 35.2953C396.909 35.4826 397 35.7359 397 36C397 36.264 396.909 36.5174 396.746 36.7047C396.584 36.892 396.363 36.9982 396.132 37Z" fill="#53B88C"/>
<path d="M241 28C244.866 28 248 24.866 248 21C248 17.134 244.866 14 241 14C237.134 14 234 17.134 234 21C234 24.866 237.134 28 241 28Z" fill="#53B88C"/>
<path d="M287 28C290.866 28 294 24.866 294 21C294 17.134 290.866 14 287 14C283.134 14 280 17.134 280 21C280 24.866 283.134 28 287 28Z" fill="#53B88C"/>
<path d="M332.5 28C336.09 28 339 24.866 339 21C339 17.134 336.09 14 332.5 14C328.91 14 326 17.134 326 21C326 24.866 328.91 28 332.5 28Z" fill="#53B88C"/>
<path d="M378.5 28C382.09 28 385 24.866 385 21C385 17.134 382.09 14 378.5 14C374.91 14 372 17.134 372 21C372 24.866 374.91 28 378.5 28Z" fill="#53B88C"/>
</svg>
