<svg width="156" height="158" viewBox="0 0 156 158" fill="none" xmlns="http://www.w3.org/2000/svg">
<path opacity="0.62" d="M76.7917 152.485C118.701 152.485 152.675 118.35 152.675 76.2424C152.675 34.1349 118.701 0 76.7917 0C34.8824 0 0.908203 34.1349 0.908203 76.2424C0.908203 118.35 34.8824 152.485 76.7917 152.485Z" fill="#B2B2B2"/>
<path d="M25.2041 97.0411L71.8243 68.9988C74.395 67.4452 77.6035 67.4452 80.1742 68.9988L126.794 97.0411V142.736L25.2234 137.629V97.0411H25.2041Z" fill="#EE7D2C"/>
<path d="M118.019 76.7861H33.9404V149.805H118.019V76.7861Z" fill="#FDECDB"/>
<path d="M37.6959 80.783C38.1397 80.5983 38.3504 80.0871 38.1666 79.6412C37.9828 79.1953 37.474 78.9835 37.0302 79.1682C36.5863 79.353 36.3756 79.8642 36.5594 80.3101C36.7433 80.756 37.2521 80.9677 37.6959 80.783Z" fill="#EECBAB"/>
<path d="M113.67 79.9711C113.67 79.4856 114.057 79.0972 114.54 79.0972C115.023 79.0972 115.41 79.4856 115.41 79.9711C115.41 80.4565 115.023 80.8449 114.54 80.8449C114.057 80.8449 113.67 80.4565 113.67 79.9711Z" fill="#EECBAB"/>
<path d="M114.54 79.874H37.3618V80.0682H114.54V79.874Z" fill="#EECBAB"/>
<path d="M37.4775 79.6216H37.2842V157.165H37.4775V79.6216Z" fill="#EECBAB"/>
<path d="M114.676 79.6216H114.482V157.165H114.676V79.6216Z" fill="#EECBAB"/>
<path d="M126.775 96.9052V158H25.2041V96.9052L75.98 127.453L126.775 96.9052Z" fill="#F49649"/>
<path d="M25.2041 158L71.7277 124.481C74.2791 122.636 77.7002 122.636 80.2516 124.481L126.775 158H25.2041Z" fill="#EE7D2C"/>
<path d="M91.4814 86.904H60.8264C60.3819 86.904 60.0146 86.535 60.0146 86.0883C60.0146 85.6417 60.3819 85.2727 60.8264 85.2727H91.4814C91.9259 85.2727 92.2932 85.6417 92.2932 86.0883C92.2932 86.535 91.9259 86.904 91.4814 86.904Z" fill="#EECBAB"/>
<path d="M99.3865 90.1664H52.9402C52.4957 90.1664 52.1284 89.7974 52.1284 89.3508C52.1284 88.9041 52.4957 88.5352 52.9402 88.5352H99.3865C99.8311 88.5352 100.198 88.9041 100.198 89.3508C100.198 89.7974 99.8311 90.1664 99.3865 90.1664Z" fill="#EECBAB"/>
<path d="M93.3561 100.284H59.7439C59.4153 100.284 59.1641 100.012 59.1641 99.7016C59.1641 99.3715 59.4347 99.119 59.7439 99.119H93.3561C93.6847 99.119 93.936 99.3909 93.936 99.7016C93.9553 100.032 93.6847 100.284 93.3561 100.284Z" fill="#EECBAB"/>
<path d="M63.1265 103.353H53.6555C53.327 103.353 53.0757 103.081 53.0757 102.77C53.0757 102.44 53.3463 102.187 53.6555 102.187H63.1265C63.4551 102.187 63.7063 102.459 63.7063 102.77C63.7063 103.1 63.4551 103.353 63.1265 103.353Z" fill="#EECBAB"/>
<path d="M77.41 103.353H65.9675C65.639 103.353 65.3877 103.081 65.3877 102.77C65.3877 102.44 65.6583 102.187 65.9675 102.187H77.41C77.7386 102.187 77.9898 102.459 77.9898 102.77C78.0092 103.1 77.7386 103.353 77.41 103.353Z" fill="#EECBAB"/>
<path d="M99.464 103.353H79.6717C79.3431 103.353 79.0918 103.081 79.0918 102.77C79.0918 102.44 79.3624 102.187 79.6717 102.187H99.464C99.7926 102.187 100.044 102.459 100.044 102.77C100.044 103.1 99.7926 103.353 99.464 103.353Z" fill="#EECBAB"/>
<path d="M77.4874 106.926H59.0867C58.7581 106.926 58.5068 106.654 58.5068 106.343C58.5068 106.013 58.7774 105.761 59.0867 105.761H77.4874C77.816 105.761 78.0672 106.032 78.0672 106.343C78.0866 106.673 77.816 106.926 77.4874 106.926Z" fill="#EECBAB"/>
<path d="M94.0327 106.926H79.5364C79.2078 106.926 78.9565 106.654 78.9565 106.343C78.9565 106.013 79.2271 105.761 79.5364 105.761H94.0327C94.3613 105.761 94.6126 106.032 94.6126 106.343C94.6126 106.673 94.342 106.926 94.0327 106.926Z" fill="#EECBAB"/>
<path d="M82.6675 114.208C81.5658 115.14 80.3674 115.898 79.1304 116.597C79.227 116.267 79.3237 115.917 79.3043 115.606C79.285 115.179 78.9371 115.004 78.6085 114.83C78.5312 114.791 78.4539 114.733 78.3766 114.694C78.5119 114.558 78.5699 114.383 78.4925 114.189C78.3572 113.859 77.9513 113.917 77.816 114.208C77.7967 114.267 77.7774 114.325 77.7774 114.364C77.7194 114.344 77.6807 114.305 77.6421 114.267C77.8547 113.878 78.048 113.49 78.2219 113.082C78.2606 112.985 78.2026 112.888 78.1446 112.829C77.8547 112.596 77.4488 112.674 77.2169 112.965C76.9269 113.296 77.0042 113.8 77.1395 114.189C77.1395 114.208 77.1589 114.247 77.1782 114.267C76.9076 114.733 76.637 115.199 76.3277 115.645C76.3084 115.626 76.2698 115.587 76.2504 115.568C76.1731 115.49 76.0958 115.393 76.0185 115.276C76.1538 114.907 76.2504 114.519 76.2891 114.131C76.3084 113.956 76.1345 113.859 75.9798 113.917C75.5739 114.072 75.342 114.48 75.4 114.927C75.4193 115.082 75.458 115.218 75.5353 115.354C75.4386 115.548 75.342 115.742 75.2067 115.937C75.1294 116.053 75.1874 116.189 75.284 116.247C75.1487 116.694 74.9748 117.16 74.6655 117.49C74.4142 117.762 73.9503 117.956 73.6411 117.646C73.4478 117.451 73.4285 117.121 73.3898 116.849C73.3318 116.209 73.2739 115.529 73.2932 114.869C73.3125 114.558 73.3318 114.247 73.4478 113.956C73.5058 113.781 73.6024 113.509 73.6991 113.82C73.7377 113.975 73.6798 114.208 73.6604 114.364C73.6411 114.636 74.0663 114.674 74.0856 114.402C74.1243 114.072 74.2596 113.393 73.8924 113.179C73.5831 113.004 73.3125 113.257 73.1579 113.509C72.6553 114.422 72.8486 115.684 72.9259 116.675C72.9839 117.471 73.2739 118.442 74.2983 118.189C75.2454 117.956 75.5933 116.752 75.8059 115.917C75.8252 115.859 75.8059 115.82 75.8059 115.781C75.8059 115.781 75.8059 115.762 75.8252 115.762C75.8639 115.801 75.9025 115.84 75.9412 115.878C75.9992 115.937 76.0572 115.975 76.0958 116.034C75.9992 116.17 75.9025 116.306 75.7866 116.442C75.7286 116.519 75.7479 116.636 75.8059 116.713C76.1345 117.102 76.695 116.811 76.695 116.344C76.695 116.228 76.6563 116.131 76.6177 116.053C76.9269 115.626 77.1975 115.179 77.4488 114.713C77.5841 114.849 77.7581 114.927 77.9707 114.927C77.99 114.927 77.99 114.927 78.0093 114.927C78.1253 115.043 78.2606 115.14 78.3766 115.218C78.4925 115.296 78.6472 115.335 78.7438 115.412C78.9564 115.587 78.8791 115.781 78.8405 116.014C78.7825 116.325 78.6858 116.636 78.5892 116.946C78.164 117.199 77.7194 117.51 77.5841 118.015C77.4488 118.481 77.5648 118.947 77.9513 119.238C78.0673 119.316 78.2219 119.257 78.2799 119.121C78.5312 118.519 78.7438 117.898 78.9371 117.277C78.9371 117.257 78.9564 117.238 78.9564 117.218C79.343 117.005 79.7489 116.811 80.1161 116.577C81.1212 115.975 82.0683 115.296 82.9767 114.538C83.17 114.344 82.8801 114.014 82.6675 114.208ZM77.4295 113.626C77.4295 113.451 77.5261 113.14 77.7194 113.14C77.6228 113.334 77.5454 113.529 77.4488 113.723C77.4295 113.684 77.4295 113.645 77.4295 113.626ZM77.9707 118.636C77.7967 118.286 78.048 117.879 78.3379 117.587C78.2413 117.937 78.106 118.286 77.9707 118.636Z" fill="#F49749"/>
<path d="M21.0292 137.085C20.546 137.085 20.0628 137.085 19.6183 137.065C19.5603 137.065 19.5216 137.026 19.5216 136.968C19.5216 136.91 19.5603 136.871 19.6183 136.871C20.0628 136.891 20.546 136.891 21.0292 136.891C21.0872 136.891 21.1259 136.929 21.1259 136.988C21.1259 137.046 21.0679 137.085 21.0292 137.085ZM22.4402 137.065C22.3822 137.065 22.3436 137.026 22.3436 136.968C22.3436 136.91 22.3822 136.871 22.4402 136.871C22.8848 136.871 23.368 136.852 23.8512 136.832C23.9092 136.832 23.9478 136.871 23.9478 136.929C23.9478 136.988 23.9092 137.026 23.8512 137.026C23.368 137.046 22.8848 137.065 22.4402 137.065ZM18.2073 137.007C17.7048 136.968 17.2215 136.929 16.7963 136.891C16.7383 136.891 16.6997 136.832 16.719 136.793C16.719 136.735 16.777 136.696 16.8156 136.716C17.2602 136.755 17.7241 136.793 18.2073 136.832C18.2653 136.832 18.3039 136.871 18.3039 136.929C18.3039 136.968 18.2459 137.007 18.2073 137.007ZM25.2622 136.988C25.2042 136.988 25.1655 136.949 25.1655 136.891C25.1655 136.832 25.2042 136.793 25.2622 136.793C25.7067 136.774 26.1899 136.755 26.6732 136.716C26.7311 136.716 26.7698 136.755 26.7698 136.813C26.7698 136.871 26.7311 136.91 26.6732 136.91C26.1899 136.929 25.7067 136.968 25.2622 136.988ZM28.0841 136.813C28.0261 136.813 27.9875 136.774 27.9875 136.716C27.9875 136.658 28.0261 136.619 28.0841 136.619C28.548 136.58 29.0119 136.56 29.4951 136.522C29.5531 136.522 29.5918 136.56 29.5918 136.599C29.5918 136.658 29.5531 136.696 29.5144 136.696C29.0119 136.755 28.548 136.793 28.0841 136.813ZM15.4047 136.696C15.4047 136.696 15.3853 136.696 15.4047 136.696C14.8635 136.599 14.3996 136.483 14.013 136.366C13.955 136.347 13.9357 136.289 13.955 136.25C13.9744 136.191 14.0323 136.172 14.071 136.191C14.4576 136.308 14.9215 136.424 15.424 136.522C15.482 136.522 15.5013 136.58 15.5013 136.638C15.482 136.658 15.4433 136.696 15.4047 136.696ZM30.8868 136.599C30.8288 136.599 30.7901 136.56 30.7901 136.522C30.7901 136.463 30.8288 136.424 30.8674 136.424C31.3313 136.386 31.7952 136.347 32.2784 136.308C32.3364 136.308 32.3751 136.347 32.3751 136.386C32.3751 136.444 32.3364 136.483 32.2977 136.483C31.8339 136.522 31.37 136.56 30.8868 136.599C30.9061 136.599 30.8868 136.599 30.8868 136.599ZM33.7087 136.347C33.6701 136.347 33.6121 136.308 33.6121 136.269C33.6121 136.211 33.6507 136.172 33.6894 136.172C34.1533 136.133 34.6172 136.075 35.1004 136.036C35.1584 136.036 35.197 136.075 35.197 136.114C35.197 136.172 35.1584 136.211 35.1197 136.211C34.6558 136.25 34.1726 136.308 33.7087 136.347ZM36.5113 136.056C36.4727 136.056 36.4147 136.017 36.4147 135.978C36.4147 135.92 36.4534 135.881 36.492 135.881C36.9559 135.822 37.4198 135.784 37.903 135.725C37.961 135.725 37.9996 135.764 37.9996 135.803C37.9996 135.861 37.961 135.9 37.9223 135.9C37.4584 135.958 36.9946 136.017 36.5113 136.056ZM12.7567 135.764C12.7373 135.764 12.718 135.764 12.6987 135.745C12.4281 135.551 12.2348 135.318 12.1188 135.065C12.0415 134.89 11.9642 134.716 11.9062 134.541C11.8869 134.482 11.9255 134.444 11.9642 134.424C12.0222 134.405 12.0608 134.444 12.0802 134.482C12.1382 134.657 12.1961 134.813 12.2735 134.987C12.3701 135.201 12.5441 135.415 12.7953 135.589C12.834 135.628 12.8533 135.687 12.8147 135.725C12.8147 135.745 12.7953 135.764 12.7567 135.764ZM39.314 135.745C39.2753 135.745 39.2173 135.706 39.2173 135.667C39.2173 135.609 39.256 135.57 39.2946 135.57C39.7585 135.512 40.2224 135.453 40.6863 135.395C40.7443 135.395 40.7829 135.434 40.7829 135.473C40.7829 135.531 40.7443 135.57 40.7056 135.57C40.2611 135.628 39.7972 135.687 39.314 135.745C39.3333 135.745 39.314 135.745 39.314 135.745ZM42.1166 135.395C42.0779 135.395 42.02 135.356 42.02 135.318C42.02 135.259 42.0586 135.22 42.0973 135.22C42.5612 135.162 43.025 135.104 43.4889 135.046C43.5469 135.046 43.5856 135.085 43.5856 135.123C43.5856 135.162 43.5469 135.22 43.5082 135.22C43.0637 135.279 42.5998 135.337 42.1166 135.395C42.1359 135.395 42.1166 135.395 42.1166 135.395ZM44.9192 135.046C44.8806 135.046 44.8419 135.007 44.8226 134.968C44.8226 134.91 44.8612 134.871 44.8999 134.871C45.3638 134.813 45.8277 134.754 46.2915 134.677C46.3495 134.677 46.3882 134.716 46.3882 134.754C46.3882 134.813 46.3495 134.851 46.3109 134.851C45.8663 134.91 45.3831 134.968 44.9192 135.046ZM47.7219 134.657C47.6832 134.657 47.6445 134.618 47.6252 134.58C47.6252 134.521 47.6445 134.482 47.7025 134.482C48.1664 134.424 48.6303 134.347 49.0942 134.288C49.1522 134.288 49.1908 134.308 49.1908 134.366C49.1908 134.424 49.1715 134.463 49.1135 134.463C48.6689 134.521 48.1857 134.599 47.7219 134.657ZM50.5051 134.269C50.4665 134.269 50.4278 134.23 50.4085 134.191C50.4085 134.133 50.4278 134.094 50.4858 134.075C50.9497 134.016 51.4136 133.939 51.8775 133.88C51.9355 133.88 51.9741 133.9 51.9934 133.958C51.9934 134.016 51.9741 134.055 51.9161 134.075C51.4522 134.133 50.9884 134.191 50.5051 134.269C50.5245 134.269 50.5051 134.269 50.5051 134.269ZM53.3078 133.842C53.2691 133.842 53.2305 133.803 53.2111 133.764C53.2111 133.706 53.2305 133.667 53.2884 133.647C53.7523 133.57 54.2162 133.512 54.6801 133.434C54.7381 133.434 54.7767 133.453 54.7961 133.512C54.7961 133.57 54.7767 133.609 54.7188 133.628C54.2549 133.706 53.791 133.783 53.3078 133.842ZM56.0911 133.434C56.0524 133.434 56.0138 133.395 55.9944 133.356C55.9944 133.298 56.0138 133.259 56.0717 133.24C56.5356 133.162 56.9995 133.104 57.4634 133.026C57.5214 133.026 57.56 133.045 57.5794 133.104C57.5794 133.162 57.56 133.201 57.5021 133.22C57.0382 133.278 56.5743 133.356 56.0911 133.434C56.1104 133.434 56.0911 133.434 56.0911 133.434ZM11.9062 133.201C11.8289 133.181 11.8096 133.143 11.8096 133.084C11.9062 132.638 12.1188 132.191 12.4474 131.803C12.4861 131.764 12.5441 131.764 12.5827 131.783C12.6214 131.822 12.6214 131.88 12.602 131.919C12.2928 132.307 12.0995 132.715 12.0029 133.123C12.0029 133.181 11.9642 133.201 11.9062 133.201ZM58.8744 132.987C58.8357 132.987 58.7971 132.948 58.7777 132.909C58.7777 132.851 58.7971 132.812 58.855 132.793C59.3189 132.715 59.7828 132.638 60.2467 132.579C60.3047 132.579 60.3433 132.599 60.3627 132.657C60.3627 132.715 60.3433 132.754 60.2854 132.774C59.8408 132.832 59.3576 132.909 58.8744 132.987C58.8937 132.987 58.8937 132.987 58.8744 132.987ZM61.677 132.541C61.6383 132.541 61.5997 132.502 61.5804 132.463C61.5804 132.405 61.5997 132.366 61.6577 132.346C62.1216 132.269 62.5854 132.191 63.0493 132.113C63.1073 132.113 63.146 132.133 63.1653 132.191C63.1653 132.249 63.146 132.288 63.088 132.307C62.6241 132.385 62.1602 132.463 61.677 132.541ZM64.4603 132.074C64.4216 132.074 64.383 132.036 64.3637 131.997C64.3637 131.939 64.383 131.9 64.441 131.88C64.9049 131.803 65.3687 131.725 65.8326 131.647C65.8906 131.647 65.9293 131.667 65.9486 131.725C65.9486 131.783 65.9293 131.822 65.8713 131.841C65.4074 131.919 64.9435 131.997 64.4603 132.074ZM67.2436 131.608C67.2049 131.608 67.1663 131.57 67.147 131.531C67.147 131.472 67.1663 131.434 67.2243 131.414C67.6881 131.336 68.152 131.259 68.6159 131.181C68.6739 131.181 68.7126 131.201 68.7319 131.259C68.7319 131.317 68.7126 131.356 68.6546 131.375C68.1907 131.453 67.7268 131.531 67.2436 131.608ZM70.0269 131.123C69.9882 131.123 69.9496 131.084 69.9303 131.045C69.9303 130.987 69.9496 130.948 70.0076 130.929C70.4908 130.851 70.9547 130.773 71.3992 130.676C71.4572 130.676 71.4959 130.696 71.5152 130.754C71.5152 130.812 71.4959 130.851 71.4379 130.87C70.974 130.968 70.5101 131.045 70.0269 131.123ZM13.5685 131.026C13.5298 131.026 13.5105 131.006 13.4911 130.987C13.4525 130.948 13.4718 130.89 13.5105 130.851C13.8584 130.599 14.2836 130.365 14.7475 130.132C14.7862 130.113 14.8441 130.132 14.8828 130.171C14.9021 130.21 14.8828 130.268 14.8441 130.307C14.3996 130.521 13.9744 130.773 13.6458 131.006C13.6071 131.006 13.5878 131.026 13.5685 131.026ZM72.8102 130.637C72.7715 130.637 72.7329 130.599 72.7136 130.56C72.7136 130.501 72.7329 130.463 72.7909 130.443C73.2741 130.365 73.738 130.268 74.1825 130.191C74.2405 130.191 74.2792 130.21 74.2985 130.268C74.2985 130.327 74.2792 130.365 74.2212 130.385C73.7766 130.463 73.3127 130.56 72.8102 130.637ZM75.5935 130.132C75.5548 130.132 75.5162 130.094 75.4969 130.055C75.4969 129.997 75.5162 129.958 75.5742 129.938C76.0574 129.841 76.5213 129.763 76.9658 129.686C77.0238 129.686 77.0625 129.705 77.0818 129.763C77.0818 129.822 77.0625 129.861 77.0045 129.88C76.5599 129.958 76.096 130.055 75.5935 130.132ZM16.0812 129.744C16.0425 129.744 16.0038 129.725 15.9845 129.686C15.9652 129.628 15.9845 129.589 16.0425 129.569C16.4677 129.414 16.9123 129.259 17.3955 129.123C17.4535 129.103 17.4921 129.142 17.5115 129.181C17.5308 129.239 17.4921 129.278 17.4535 129.297C16.9896 129.433 16.5257 129.589 16.1198 129.744C16.1005 129.744 16.1005 129.744 16.0812 129.744ZM78.3768 129.628C78.3381 129.628 78.2995 129.589 78.2802 129.55C78.2802 129.492 78.2995 129.453 78.3575 129.433C78.8793 129.336 79.3625 129.239 79.7491 129.181C79.8071 129.161 79.8458 129.2 79.8651 129.259C79.8651 129.317 79.8457 129.356 79.7878 129.375C79.3819 129.433 78.918 129.53 78.3768 129.628ZM81.1601 129.103C81.1214 129.103 81.0828 129.064 81.0634 129.026C81.0441 128.967 81.0828 128.928 81.1408 128.909C81.2374 128.89 81.2954 128.89 81.2954 128.87C81.3534 128.851 81.4114 128.909 81.4114 128.967C81.4114 129.064 81.4114 129.064 81.1601 129.103C81.1794 129.103 81.1601 129.103 81.1601 129.103ZM18.7871 128.928C18.7485 128.928 18.7098 128.909 18.6905 128.851C18.6712 128.792 18.7098 128.754 18.7678 128.734C19.2124 128.618 19.6763 128.521 20.1595 128.424C20.2175 128.404 20.2561 128.443 20.2754 128.501C20.2948 128.559 20.2561 128.598 20.1981 128.618C19.7149 128.715 19.251 128.812 18.8258 128.928C18.8065 128.928 18.7871 128.928 18.7871 128.928Z" fill="#B2CBEC"/>
<path d="M84.3106 134.075L95.8883 127.491L85.3157 128.113L86.1275 129.9L83.9434 132.327L84.3106 134.075Z" fill="#B2CBEC"/>
<path d="M95.8884 127.491L83.7501 129.725L74.917 135.881L95.8884 127.491Z" fill="white"/>
<path d="M85.3157 128.113L95.8884 127.491L84.8325 124.229L85.3157 128.113Z" fill="white"/>
<path d="M74.1632 46.8019L78.5507 56.5118L62.4115 63.8525L58.0239 54.162L68.2873 55.3272L74.1632 46.8019Z" fill="#54B78C"/>
<path d="M58.0239 54.162L74.1632 46.8213L69.3311 54.997C68.9445 55.6379 68.21 55.9875 67.4755 55.8515L58.0239 54.162Z" fill="#317A5A"/>
<path d="M10.3214 97.1576L12.6215 103.353L2.30009 107.217L0 101.022L6.30108 102.187L10.3214 97.1576Z" fill="#54B78C"/>
<path d="M0 101.022L10.3214 97.1576L6.97757 102.013C6.70698 102.401 6.24309 102.576 5.79854 102.459L0 101.022Z" fill="#317A5A"/>
<path d="M156 99.9929L152.753 112.169L132.497 106.732L135.724 94.5553L144.248 103.352L156 99.9929Z" fill="#54B78C"/>
<path d="M135.725 94.5553L155.981 99.9929L145.466 103.838C144.635 104.149 143.707 103.896 143.127 103.217L135.725 94.5553Z" fill="#317A5A"/>
<path d="M147.573 78.3009C152.946 67.1539 148.501 53.7931 137.677 48.0642C126.08 41.9275 111.815 46.8019 106.345 58.7646C102.402 67.387 104.239 77.2328 110.288 83.8356C111.332 84.962 111.951 86.4184 112.067 87.9526L112.801 97.915C112.801 97.9344 112.82 97.9538 112.84 97.9344L121.054 92.3221C122.311 91.4676 123.838 91.0404 125.365 91.1569C134.41 91.856 143.379 87.0205 147.573 78.3009Z" fill="#4E9E7A"/>
<path d="M125.365 78.8253C124.804 79.9904 123.413 80.4759 122.253 79.9128C121.093 79.3496 120.61 77.9514 121.17 76.7862C121.731 75.621 123.123 75.1355 124.282 75.6986C125.442 76.2618 125.925 77.6601 125.365 78.8253Z" fill="white"/>
<path d="M132.748 81.5441L114.463 72.6692L115.333 71.4846C115.855 70.7661 116.628 70.2417 117.517 69.9893L118.89 69.5815L125.809 61.3863C127.046 59.755 129.443 59.2695 131.492 60.2793L131.801 60.4347C133.85 61.4251 134.99 63.6196 134.468 65.6004L132.4 76.1648L132.941 77.5048C133.309 78.3592 133.367 79.2914 133.135 80.1459L132.748 81.5441Z" fill="white"/>
<path d="M130.545 62.2796C129.443 61.7552 128.998 60.4153 129.52 59.3277C130.042 58.2208 131.376 57.7742 132.458 58.2985C133.56 58.8228 134.004 60.1628 133.482 61.2503C132.961 62.3572 131.627 62.8233 130.545 62.2796ZM131.878 59.5025C131.453 59.2889 130.912 59.4831 130.718 59.9103C130.506 60.3376 130.699 60.8813 131.124 61.0755C131.55 61.2891 132.091 61.0949 132.284 60.6677C132.497 60.2405 132.323 59.7161 131.878 59.5025Z" fill="white"/>
<path d="M102.267 49.2488L115.41 51.3267L106.751 45.2095L106.287 47.1126L103.078 47.6564L102.267 49.2488Z" fill="#B2CBEC"/>
<path d="M115.41 51.3267L104.528 45.4813L93.8008 44.7822L115.41 51.3267Z" fill="white"/>
<path d="M106.751 45.2095L115.41 51.3267L108.78 41.8693L106.751 45.2095Z" fill="white"/>
<path d="M19.6763 66.9014L29.6884 58.1042L19.4637 60.8619L20.6234 62.4349L18.9805 65.2702L19.6763 66.9014Z" fill="#B2CBEC"/>
<path d="M29.6883 58.1042L18.2459 62.7456L10.8237 70.5718L29.6883 58.1042Z" fill="white"/>
<path d="M19.4634 60.8619L29.6881 58.1043L18.207 57.1527L19.4634 60.8619Z" fill="white"/>
<path d="M114.715 14.0988L111.216 24.1583L94.4971 18.2935L97.9955 8.23401L104.606 16.1962L114.715 14.0988Z" fill="#54B78C"/>
<path d="M97.9956 8.23401L114.715 14.1182L105.611 16.6816C104.896 16.8758 104.123 16.6234 103.678 16.0214L97.9956 8.23401Z" fill="#317A5A"/>
<path d="M40.1257 28.4113L43.3922 36.2957L30.2682 41.7721L27.021 33.8682L35.1969 35.0917L40.1257 28.4113Z" fill="#54B78C"/>
<path d="M27.021 33.8682L40.1257 28.4113L36.0474 34.8198C35.7188 35.3247 35.1196 35.5772 34.5398 35.4607L27.021 33.8682Z" fill="#317A5A"/>
<path d="M65.3496 22.2357L75.3811 13.4385L65.1563 16.1961L66.3161 17.7691L64.6538 20.6044L65.3496 22.2357Z" fill="#B2CBEC"/>
<path d="M75.3812 13.4385L63.9387 18.0798L56.5166 25.906L75.3812 13.4385Z" fill="white"/>
<path d="M65.1563 16.1961L75.381 13.4385L63.8999 12.4869L65.1563 16.1961Z" fill="white"/>
<path opacity="0.62" d="M76.7917 152.485C118.701 152.485 152.675 118.35 152.675 76.2424C152.675 34.1349 118.701 0 76.7917 0C34.8824 0 0.908203 34.1349 0.908203 76.2424C0.908203 118.35 34.8824 152.485 76.7917 152.485Z" fill="#54B78C"/>
<path d="M25.2041 97.0411L71.8243 68.9988C74.395 67.4452 77.6035 67.4452 80.1742 68.9988L126.794 97.0411V142.736L25.2234 137.629V97.0411H25.2041Z" fill="#EE7D2C"/>
<path d="M118.019 76.7861H33.9404V149.805H118.019V76.7861Z" fill="#FDECDB"/>
<path d="M37.6959 80.783C38.1397 80.5983 38.3504 80.0871 38.1666 79.6412C37.9828 79.1953 37.474 78.9835 37.0302 79.1682C36.5863 79.353 36.3756 79.8642 36.5594 80.3101C36.7433 80.756 37.2521 80.9677 37.6959 80.783Z" fill="#EECBAB"/>
<path d="M113.67 79.9711C113.67 79.4856 114.057 79.0972 114.54 79.0972C115.023 79.0972 115.41 79.4856 115.41 79.9711C115.41 80.4566 115.023 80.8449 114.54 80.8449C114.057 80.8449 113.67 80.4566 113.67 79.9711Z" fill="#EECBAB"/>
<path d="M114.54 79.874H37.3618V80.0682H114.54V79.874Z" fill="#EECBAB"/>
<path d="M37.4775 79.6216H37.2842V157.165H37.4775V79.6216Z" fill="#EECBAB"/>
<path d="M114.676 79.6216H114.482V157.165H114.676V79.6216Z" fill="#EECBAB"/>
<path d="M126.775 96.9052V158H25.2041V96.9052L75.98 127.453L126.775 96.9052Z" fill="#F49649"/>
<path d="M25.2041 158L71.7277 124.481C74.2791 122.636 77.7002 122.636 80.2516 124.481L126.775 158H25.2041Z" fill="#EE7D2C"/>
<path d="M91.4814 86.904H60.8264C60.3819 86.904 60.0146 86.535 60.0146 86.0883C60.0146 85.6417 60.3819 85.2727 60.8264 85.2727H91.4814C91.9259 85.2727 92.2932 85.6417 92.2932 86.0883C92.2932 86.535 91.9259 86.904 91.4814 86.904Z" fill="#EECBAB"/>
<path d="M99.3865 90.1664H52.9402C52.4957 90.1664 52.1284 89.7975 52.1284 89.3508C52.1284 88.9041 52.4957 88.5352 52.9402 88.5352H99.3865C99.8311 88.5352 100.198 88.9041 100.198 89.3508C100.198 89.7975 99.8311 90.1664 99.3865 90.1664Z" fill="#EECBAB"/>
<path d="M93.3561 100.284H59.7439C59.4153 100.284 59.1641 100.012 59.1641 99.7016C59.1641 99.3715 59.4347 99.119 59.7439 99.119H93.3561C93.6847 99.119 93.936 99.3909 93.936 99.7016C93.9553 100.032 93.6847 100.284 93.3561 100.284Z" fill="#EECBAB"/>
<path d="M63.1265 103.353H53.6555C53.327 103.353 53.0757 103.081 53.0757 102.77C53.0757 102.44 53.3463 102.187 53.6555 102.187H63.1265C63.4551 102.187 63.7063 102.459 63.7063 102.77C63.7063 103.1 63.4551 103.353 63.1265 103.353Z" fill="#EECBAB"/>
<path d="M77.41 103.353H65.9675C65.639 103.353 65.3877 103.081 65.3877 102.77C65.3877 102.44 65.6583 102.187 65.9675 102.187H77.41C77.7386 102.187 77.9899 102.459 77.9899 102.77C78.0092 103.1 77.7386 103.353 77.41 103.353Z" fill="#EECBAB"/>
<path d="M99.464 103.353H79.6717C79.3431 103.353 79.0918 103.081 79.0918 102.77C79.0918 102.44 79.3624 102.187 79.6717 102.187H99.464C99.7926 102.187 100.044 102.459 100.044 102.77C100.044 103.1 99.7926 103.353 99.464 103.353Z" fill="#EECBAB"/>
<path d="M77.4874 106.926H59.0867C58.7581 106.926 58.5068 106.654 58.5068 106.343C58.5068 106.013 58.7774 105.761 59.0867 105.761H77.4874C77.816 105.761 78.0672 106.032 78.0672 106.343C78.0866 106.673 77.816 106.926 77.4874 106.926Z" fill="#EECBAB"/>
<path d="M94.0327 106.926H79.5364C79.2078 106.926 78.9565 106.654 78.9565 106.343C78.9565 106.013 79.2271 105.761 79.5364 105.761H94.0327C94.3613 105.761 94.6126 106.032 94.6126 106.343C94.6126 106.673 94.342 106.926 94.0327 106.926Z" fill="#EECBAB"/>
<path d="M82.6675 114.208C81.5658 115.14 80.3674 115.898 79.1304 116.597C79.227 116.267 79.3237 115.917 79.3043 115.606C79.285 115.179 78.9371 115.004 78.6085 114.83C78.5312 114.791 78.4539 114.733 78.3766 114.694C78.5119 114.558 78.5699 114.383 78.4925 114.189C78.3572 113.859 77.9513 113.917 77.816 114.208C77.7967 114.267 77.7774 114.325 77.7774 114.364C77.7194 114.344 77.6807 114.305 77.6421 114.267C77.8547 113.878 78.048 113.49 78.2219 113.082C78.2606 112.985 78.2026 112.888 78.1446 112.829C77.8547 112.596 77.4488 112.674 77.2169 112.965C76.9269 113.296 77.0042 113.8 77.1395 114.189C77.1395 114.208 77.1589 114.247 77.1782 114.267C76.9076 114.733 76.637 115.199 76.3277 115.645C76.3084 115.626 76.2698 115.587 76.2504 115.568C76.1731 115.49 76.0958 115.393 76.0185 115.276C76.1538 114.907 76.2504 114.519 76.2891 114.131C76.3084 113.956 76.1345 113.859 75.9798 113.917C75.5739 114.072 75.342 114.48 75.4 114.927C75.4193 115.082 75.458 115.218 75.5353 115.354C75.4386 115.548 75.342 115.742 75.2067 115.937C75.1294 116.053 75.1874 116.189 75.284 116.247C75.1487 116.694 74.9748 117.16 74.6655 117.49C74.4142 117.762 73.9503 117.956 73.6411 117.646C73.4478 117.451 73.4285 117.121 73.3898 116.849C73.3318 116.209 73.2739 115.529 73.2932 114.869C73.3125 114.558 73.3318 114.247 73.4478 113.956C73.5058 113.781 73.6024 113.509 73.6991 113.82C73.7377 113.975 73.6798 114.208 73.6604 114.364C73.6411 114.636 74.0663 114.674 74.0856 114.402C74.1243 114.072 74.2596 113.393 73.8924 113.179C73.5831 113.004 73.3125 113.257 73.1579 113.509C72.6553 114.422 72.8486 115.684 72.9259 116.675C72.9839 117.471 73.2739 118.442 74.2983 118.189C75.2454 117.956 75.5933 116.752 75.8059 115.917C75.8252 115.859 75.8059 115.82 75.8059 115.781C75.8059 115.781 75.8059 115.762 75.8252 115.762C75.8639 115.801 75.9025 115.84 75.9412 115.878C75.9992 115.937 76.0572 115.975 76.0958 116.034C75.9992 116.17 75.9025 116.306 75.7866 116.442C75.7286 116.519 75.7479 116.636 75.8059 116.713C76.1345 117.102 76.695 116.811 76.695 116.344C76.695 116.228 76.6563 116.131 76.6177 116.053C76.9269 115.626 77.1975 115.179 77.4488 114.713C77.5841 114.849 77.7581 114.927 77.9707 114.927C77.99 114.927 77.99 114.927 78.0093 114.927C78.1253 115.043 78.2606 115.14 78.3766 115.218C78.4925 115.296 78.6472 115.335 78.7438 115.412C78.9564 115.587 78.8791 115.781 78.8404 116.014C78.7825 116.325 78.6858 116.636 78.5892 116.946C78.164 117.199 77.7194 117.51 77.5841 118.015C77.4488 118.481 77.5648 118.947 77.9513 119.238C78.0673 119.316 78.2219 119.257 78.2799 119.121C78.5312 118.519 78.7438 117.898 78.9371 117.277C78.9371 117.257 78.9564 117.238 78.9564 117.218C79.343 117.005 79.7489 116.811 80.1161 116.577C81.1212 115.975 82.0683 115.296 82.9767 114.538C83.17 114.344 82.8801 114.014 82.6675 114.208ZM77.4295 113.626C77.4295 113.451 77.5261 113.14 77.7194 113.14C77.6228 113.334 77.5454 113.529 77.4488 113.723C77.4295 113.684 77.4295 113.645 77.4295 113.626ZM77.9707 118.636C77.7967 118.286 78.048 117.879 78.3379 117.587C78.2413 117.937 78.106 118.286 77.9707 118.636Z" fill="#F49749"/>
<path d="M21.0292 137.085C20.546 137.085 20.0628 137.085 19.6183 137.065C19.5603 137.065 19.5216 137.026 19.5216 136.968C19.5216 136.91 19.5603 136.871 19.6183 136.871C20.0628 136.891 20.546 136.891 21.0292 136.891C21.0872 136.891 21.1259 136.929 21.1259 136.988C21.1259 137.046 21.0679 137.085 21.0292 137.085ZM22.4402 137.065C22.3822 137.065 22.3436 137.026 22.3436 136.968C22.3436 136.91 22.3822 136.871 22.4402 136.871C22.8848 136.871 23.368 136.852 23.8512 136.832C23.9092 136.832 23.9478 136.871 23.9478 136.929C23.9478 136.988 23.9092 137.026 23.8512 137.026C23.368 137.046 22.8848 137.065 22.4402 137.065ZM18.2073 137.007C17.7048 136.968 17.2215 136.929 16.7963 136.891C16.7383 136.891 16.6997 136.832 16.719 136.793C16.719 136.735 16.777 136.696 16.8156 136.716C17.2602 136.755 17.7241 136.793 18.2073 136.832C18.2653 136.832 18.3039 136.871 18.3039 136.929C18.3039 136.968 18.2459 137.007 18.2073 137.007ZM25.2622 136.988C25.2042 136.988 25.1655 136.949 25.1655 136.891C25.1655 136.832 25.2042 136.793 25.2622 136.793C25.7067 136.774 26.1899 136.755 26.6732 136.716C26.7311 136.716 26.7698 136.755 26.7698 136.813C26.7698 136.871 26.7311 136.91 26.6732 136.91C26.1899 136.929 25.7067 136.968 25.2622 136.988ZM28.0841 136.813C28.0261 136.813 27.9875 136.774 27.9875 136.716C27.9875 136.658 28.0261 136.619 28.0841 136.619C28.548 136.58 29.0119 136.56 29.4951 136.522C29.5531 136.522 29.5918 136.56 29.5918 136.599C29.5918 136.658 29.5531 136.696 29.5144 136.696C29.0119 136.755 28.548 136.793 28.0841 136.813ZM15.4047 136.696C15.4047 136.696 15.3853 136.696 15.4047 136.696C14.8635 136.599 14.3996 136.483 14.013 136.366C13.955 136.347 13.9357 136.289 13.955 136.25C13.9744 136.191 14.0323 136.172 14.071 136.191C14.4576 136.308 14.9215 136.424 15.424 136.522C15.482 136.522 15.5013 136.58 15.5013 136.638C15.482 136.658 15.4433 136.696 15.4047 136.696ZM30.8868 136.599C30.8288 136.599 30.7901 136.56 30.7901 136.522C30.7901 136.463 30.8288 136.424 30.8674 136.424C31.3313 136.386 31.7952 136.347 32.2784 136.308C32.3364 136.308 32.3751 136.347 32.3751 136.386C32.3751 136.444 32.3364 136.483 32.2977 136.483C31.8339 136.522 31.37 136.56 30.8868 136.599C30.9061 136.599 30.8868 136.599 30.8868 136.599ZM33.7087 136.347C33.6701 136.347 33.6121 136.308 33.6121 136.269C33.6121 136.211 33.6507 136.172 33.6894 136.172C34.1533 136.133 34.6172 136.075 35.1004 136.036C35.1584 136.036 35.197 136.075 35.197 136.114C35.197 136.172 35.1584 136.211 35.1197 136.211C34.6558 136.25 34.1726 136.308 33.7087 136.347ZM36.5113 136.056C36.4727 136.056 36.4147 136.017 36.4147 135.978C36.4147 135.92 36.4534 135.881 36.492 135.881C36.9559 135.822 37.4198 135.784 37.903 135.725C37.961 135.725 37.9996 135.764 37.9996 135.803C37.9996 135.861 37.961 135.9 37.9223 135.9C37.4584 135.958 36.9946 136.017 36.5113 136.056ZM12.7567 135.764C12.7373 135.764 12.718 135.764 12.6987 135.745C12.4281 135.551 12.2348 135.318 12.1188 135.065C12.0415 134.89 11.9642 134.716 11.9062 134.541C11.8869 134.482 11.9255 134.444 11.9642 134.424C12.0222 134.405 12.0608 134.444 12.0802 134.482C12.1382 134.657 12.1961 134.813 12.2735 134.987C12.3701 135.201 12.5441 135.415 12.7953 135.589C12.834 135.628 12.8533 135.687 12.8147 135.725C12.8147 135.745 12.7953 135.764 12.7567 135.764ZM39.314 135.745C39.2753 135.745 39.2173 135.706 39.2173 135.667C39.2173 135.609 39.256 135.57 39.2946 135.57C39.7585 135.512 40.2224 135.453 40.6863 135.395C40.7443 135.395 40.7829 135.434 40.7829 135.473C40.7829 135.531 40.7443 135.57 40.7056 135.57C40.2611 135.628 39.7972 135.687 39.314 135.745C39.3333 135.745 39.314 135.745 39.314 135.745ZM42.1166 135.395C42.0779 135.395 42.02 135.356 42.02 135.318C42.02 135.259 42.0586 135.22 42.0973 135.22C42.5612 135.162 43.025 135.104 43.4889 135.046C43.5469 135.046 43.5856 135.085 43.5856 135.123C43.5856 135.162 43.5469 135.22 43.5082 135.22C43.0637 135.279 42.5998 135.337 42.1166 135.395C42.1359 135.395 42.1166 135.395 42.1166 135.395ZM44.9192 135.046C44.8806 135.046 44.8419 135.007 44.8226 134.968C44.8226 134.91 44.8612 134.871 44.8999 134.871C45.3638 134.813 45.8277 134.754 46.2915 134.677C46.3495 134.677 46.3882 134.716 46.3882 134.754C46.3882 134.813 46.3495 134.851 46.3109 134.851C45.8663 134.91 45.3831 134.968 44.9192 135.046ZM47.7219 134.657C47.6832 134.657 47.6445 134.618 47.6252 134.58C47.6252 134.521 47.6445 134.482 47.7025 134.482C48.1664 134.424 48.6303 134.347 49.0942 134.288C49.1522 134.288 49.1908 134.308 49.1908 134.366C49.1908 134.424 49.1715 134.463 49.1135 134.463C48.6689 134.521 48.1857 134.599 47.7219 134.657ZM50.5051 134.269C50.4665 134.269 50.4278 134.23 50.4085 134.191C50.4085 134.133 50.4278 134.094 50.4858 134.075C50.9497 134.016 51.4136 133.939 51.8775 133.88C51.9355 133.88 51.9741 133.9 51.9934 133.958C51.9934 134.016 51.9741 134.055 51.9161 134.075C51.4522 134.133 50.9884 134.191 50.5051 134.269C50.5245 134.269 50.5051 134.269 50.5051 134.269ZM53.3078 133.842C53.2691 133.842 53.2305 133.803 53.2111 133.764C53.2111 133.706 53.2305 133.667 53.2884 133.647C53.7523 133.57 54.2162 133.512 54.6801 133.434C54.7381 133.434 54.7767 133.453 54.7961 133.512C54.7961 133.57 54.7767 133.609 54.7188 133.628C54.2549 133.706 53.791 133.783 53.3078 133.842ZM56.0911 133.434C56.0524 133.434 56.0138 133.395 55.9944 133.356C55.9944 133.298 56.0138 133.259 56.0717 133.24C56.5356 133.162 56.9995 133.104 57.4634 133.026C57.5214 133.026 57.56 133.045 57.5794 133.104C57.5794 133.162 57.56 133.201 57.5021 133.22C57.0382 133.278 56.5743 133.356 56.0911 133.434C56.1104 133.434 56.0911 133.434 56.0911 133.434ZM11.9062 133.201C11.8289 133.181 11.8096 133.143 11.8096 133.084C11.9062 132.638 12.1188 132.191 12.4474 131.803C12.4861 131.764 12.5441 131.764 12.5827 131.783C12.6214 131.822 12.6214 131.88 12.602 131.919C12.2928 132.307 12.0995 132.715 12.0029 133.123C12.0029 133.181 11.9642 133.201 11.9062 133.201ZM58.8744 132.987C58.8357 132.987 58.7971 132.948 58.7777 132.909C58.7777 132.851 58.7971 132.812 58.855 132.793C59.3189 132.715 59.7828 132.638 60.2467 132.579C60.3047 132.579 60.3433 132.599 60.3627 132.657C60.3627 132.715 60.3433 132.754 60.2854 132.774C59.8408 132.832 59.3576 132.909 58.8744 132.987C58.8937 132.987 58.8937 132.987 58.8744 132.987ZM61.677 132.541C61.6383 132.541 61.5997 132.502 61.5804 132.463C61.5804 132.405 61.5997 132.366 61.6577 132.346C62.1216 132.269 62.5854 132.191 63.0493 132.113C63.1073 132.113 63.146 132.133 63.1653 132.191C63.1653 132.249 63.146 132.288 63.088 132.307C62.6241 132.385 62.1602 132.463 61.677 132.541ZM64.4603 132.074C64.4216 132.074 64.383 132.036 64.3637 131.997C64.3637 131.939 64.383 131.9 64.441 131.88C64.9049 131.803 65.3687 131.725 65.8326 131.647C65.8906 131.647 65.9293 131.667 65.9486 131.725C65.9486 131.783 65.9293 131.822 65.8713 131.841C65.4074 131.919 64.9435 131.997 64.4603 132.074ZM67.2436 131.608C67.2049 131.608 67.1663 131.57 67.147 131.531C67.147 131.472 67.1663 131.434 67.2243 131.414C67.6881 131.336 68.152 131.259 68.6159 131.181C68.6739 131.181 68.7126 131.201 68.7319 131.259C68.7319 131.317 68.7126 131.356 68.6546 131.375C68.1907 131.453 67.7268 131.531 67.2436 131.608ZM70.0269 131.123C69.9882 131.123 69.9496 131.084 69.9303 131.045C69.9303 130.987 69.9496 130.948 70.0076 130.929C70.4908 130.851 70.9547 130.773 71.3992 130.676C71.4572 130.676 71.4959 130.696 71.5152 130.754C71.5152 130.812 71.4959 130.851 71.4379 130.87C70.974 130.968 70.5101 131.045 70.0269 131.123ZM13.5685 131.026C13.5298 131.026 13.5105 131.006 13.4911 130.987C13.4525 130.948 13.4718 130.89 13.5105 130.851C13.8584 130.599 14.2836 130.365 14.7475 130.132C14.7862 130.113 14.8441 130.132 14.8828 130.171C14.9021 130.21 14.8828 130.268 14.8441 130.307C14.3996 130.521 13.9744 130.773 13.6458 131.006C13.6071 131.006 13.5878 131.026 13.5685 131.026ZM72.8102 130.637C72.7715 130.637 72.7329 130.599 72.7136 130.56C72.7136 130.501 72.7329 130.463 72.7909 130.443C73.2741 130.365 73.738 130.268 74.1825 130.191C74.2405 130.191 74.2792 130.21 74.2985 130.268C74.2985 130.327 74.2792 130.365 74.2212 130.385C73.7766 130.463 73.3127 130.56 72.8102 130.637ZM75.5935 130.132C75.5548 130.132 75.5162 130.094 75.4969 130.055C75.4969 129.997 75.5162 129.958 75.5742 129.938C76.0574 129.841 76.5213 129.763 76.9658 129.686C77.0238 129.686 77.0625 129.705 77.0818 129.763C77.0818 129.822 77.0625 129.861 77.0045 129.88C76.5599 129.958 76.096 130.055 75.5935 130.132ZM16.0812 129.744C16.0425 129.744 16.0038 129.725 15.9845 129.686C15.9652 129.628 15.9845 129.589 16.0425 129.569C16.4677 129.414 16.9123 129.259 17.3955 129.123C17.4535 129.103 17.4921 129.142 17.5115 129.181C17.5308 129.239 17.4921 129.278 17.4535 129.297C16.9896 129.433 16.5257 129.589 16.1198 129.744C16.1005 129.744 16.1005 129.744 16.0812 129.744ZM78.3768 129.628C78.3381 129.628 78.2995 129.589 78.2802 129.55C78.2802 129.492 78.2995 129.453 78.3575 129.433C78.8793 129.336 79.3625 129.239 79.7491 129.181C79.8071 129.161 79.8458 129.2 79.8651 129.259C79.8651 129.317 79.8457 129.356 79.7878 129.375C79.3819 129.433 78.918 129.53 78.3768 129.628ZM81.1601 129.103C81.1214 129.103 81.0828 129.064 81.0634 129.026C81.0441 128.967 81.0828 128.928 81.1408 128.909C81.2374 128.89 81.2954 128.89 81.2954 128.87C81.3534 128.851 81.4114 128.909 81.4114 128.967C81.4114 129.064 81.4114 129.064 81.1601 129.103C81.1794 129.103 81.1601 129.103 81.1601 129.103ZM18.7871 128.928C18.7485 128.928 18.7098 128.909 18.6905 128.851C18.6712 128.792 18.7098 128.754 18.7678 128.734C19.2124 128.618 19.6763 128.521 20.1595 128.424C20.2175 128.404 20.2561 128.443 20.2754 128.501C20.2948 128.559 20.2561 128.598 20.1981 128.618C19.7149 128.715 19.251 128.812 18.8258 128.928C18.8065 128.928 18.7871 128.928 18.7871 128.928Z" fill="#B2CBEC"/>
<path d="M84.3106 134.075L95.8883 127.491L85.3157 128.113L86.1275 129.9L83.9434 132.327L84.3106 134.075Z" fill="#B2CBEC"/>
<path d="M95.8884 127.491L83.7501 129.725L74.917 135.881L95.8884 127.491Z" fill="white"/>
<path d="M85.3157 128.113L95.8884 127.491L84.8325 124.229L85.3157 128.113Z" fill="white"/>
<path d="M74.1632 46.8019L78.5507 56.5118L62.4115 63.8525L58.0239 54.162L68.2873 55.3272L74.1632 46.8019Z" fill="#54B78C"/>
<path d="M58.0239 54.162L74.1632 46.8213L69.3311 54.9971C68.9445 55.6379 68.21 55.9875 67.4755 55.8515L58.0239 54.162Z" fill="#317A5A"/>
<path d="M10.3214 97.1576L12.6215 103.353L2.30009 107.217L0 101.022L6.30108 102.187L10.3214 97.1576Z" fill="#54B78C"/>
<path d="M0 101.022L10.3214 97.1576L6.97757 102.013C6.70698 102.401 6.24309 102.576 5.79854 102.459L0 101.022Z" fill="#317A5A"/>
<path d="M156 99.9929L152.753 112.169L132.497 106.732L135.724 94.5553L144.248 103.352L156 99.9929Z" fill="#54B78C"/>
<path d="M135.725 94.5553L155.981 99.9929L145.466 103.838C144.635 104.149 143.707 103.896 143.127 103.217L135.725 94.5553Z" fill="#317A5A"/>
<path d="M147.573 78.3009C152.946 67.1539 148.501 53.7931 137.677 48.0642C126.08 41.9275 111.815 46.8019 106.345 58.7646C102.402 67.387 104.239 77.2328 110.288 83.8356C111.332 84.962 111.951 86.4184 112.067 87.9526L112.801 97.915C112.801 97.9344 112.82 97.9538 112.84 97.9344L121.054 92.3221C122.311 91.4676 123.838 91.0404 125.365 91.1569C134.41 91.856 143.379 87.0205 147.573 78.3009Z" fill="#4E9E7A"/>
<path d="M125.365 78.8252C124.804 79.9904 123.413 80.4759 122.253 79.9128C121.093 79.3496 120.61 77.9514 121.17 76.7862C121.731 75.621 123.123 75.1355 124.282 75.6986C125.442 76.2618 125.925 77.6601 125.365 78.8252Z" fill="white"/>
<path d="M132.748 81.5441L114.463 72.6692L115.333 71.4846C115.855 70.7661 116.628 70.2417 117.517 69.9893L118.89 69.5815L125.809 61.3863C127.046 59.755 129.443 59.2695 131.492 60.2793L131.801 60.4347C133.85 61.4251 134.99 63.6196 134.468 65.6004L132.4 76.1648L132.941 77.5048C133.309 78.3592 133.367 79.2914 133.135 80.1459L132.748 81.5441Z" fill="white"/>
<path d="M130.545 62.2796C129.443 61.7552 128.998 60.4153 129.52 59.3277C130.042 58.2208 131.376 57.7742 132.458 58.2985C133.56 58.8228 134.004 60.1628 133.482 61.2503C132.961 62.3572 131.627 62.8233 130.545 62.2796ZM131.878 59.5025C131.453 59.2889 130.912 59.4831 130.718 59.9103C130.506 60.3376 130.699 60.8813 131.124 61.0755C131.55 61.2891 132.091 61.0949 132.284 60.6677C132.497 60.2405 132.323 59.7161 131.878 59.5025Z" fill="white"/>
<path d="M102.267 49.2488L115.41 51.3267L106.751 45.2095L106.287 47.1126L103.078 47.6564L102.267 49.2488Z" fill="#B2CBEC"/>
<path d="M115.41 51.3267L104.528 45.4813L93.8008 44.7822L115.41 51.3267Z" fill="white"/>
<path d="M106.751 45.2095L115.41 51.3267L108.78 41.8693L106.751 45.2095Z" fill="white"/>
<path d="M19.6763 66.9014L29.6884 58.1042L19.4637 60.8619L20.6234 62.4349L18.9805 65.2702L19.6763 66.9014Z" fill="#B2CBEC"/>
<path d="M29.6883 58.1042L18.2459 62.7456L10.8237 70.5718L29.6883 58.1042Z" fill="white"/>
<path d="M19.4634 60.8619L29.6881 58.1043L18.207 57.1527L19.4634 60.8619Z" fill="white"/>
<path d="M114.715 14.0988L111.216 24.1583L94.4971 18.2935L97.9955 8.23401L104.606 16.1962L114.715 14.0988Z" fill="#54B78C"/>
<path d="M97.9956 8.23401L114.715 14.1182L105.611 16.6816C104.896 16.8758 104.123 16.6234 103.678 16.0214L97.9956 8.23401Z" fill="#317A5A"/>
<path d="M40.1257 28.4113L43.3922 36.2957L30.2682 41.7721L27.021 33.8682L35.1969 35.0917L40.1257 28.4113Z" fill="#54B78C"/>
<path d="M27.021 33.8682L40.1257 28.4113L36.0474 34.8198C35.7188 35.3247 35.1196 35.5772 34.5398 35.4607L27.021 33.8682Z" fill="#317A5A"/>
<path d="M65.3496 22.2357L75.3811 13.4385L65.1564 16.1961L66.3161 17.7691L64.6538 20.6044L65.3496 22.2357Z" fill="#B2CBEC"/>
<path d="M75.3812 13.4385L63.9387 18.0798L56.5166 25.906L75.3812 13.4385Z" fill="white"/>
<path d="M65.1563 16.1961L75.381 13.4385L63.8999 12.4869L65.1563 16.1961Z" fill="white"/>
</svg>
