<svg width="151" height="38" viewBox="0 0 151 38" fill="none" xmlns="http://www.w3.org/2000/svg">
<g clip-path="url(#clip0_77_446)">
<path d="M33.2149 16.1097V27.9107H26.6561V1.18628H33.2149V12.911L42.1898 1.18628H49.8981L39.4662 14.282L50.2781 27.9107H42.2677L33.2149 16.1097Z" fill="#231F20"/>
<path d="M61.5198 6.36304C64.7034 6.36304 66.9668 7.81036 68.1164 9.67458V6.66604H74.6752V27.9085H68.1164V24.8999C66.9257 26.7652 64.6655 28.2125 61.4819 28.2125C56.2654 28.2125 52.0848 23.9479 52.0848 17.2529C52.0848 10.5578 56.2654 6.36304 61.5198 6.36304ZM63.4379 12.0363C60.9829 12.0363 58.7594 13.8629 58.7594 17.2507C58.7594 20.6385 60.9829 22.5457 63.4379 22.5457C65.9277 22.5457 68.1164 20.6794 68.1164 17.2915C68.1164 13.9037 65.9309 12.0363 63.4379 12.0363Z" fill="#231F20"/>
<path d="M94.1978 6.66826H101.293L87.8707 38H80.8129L85.723 27.1876L77.0166 6.66504H84.3418L89.2898 19.951L94.1978 6.66826Z" fill="#231F20"/>
<path d="M111.802 6.36304C114.986 6.36304 117.248 7.81036 118.405 9.67458V6.66604H124.963V27.9085H118.405V24.8999C117.215 26.7652 114.953 28.2125 111.77 28.2125C106.554 28.2125 102.374 23.9479 102.374 17.2529C102.374 10.5578 106.549 6.36304 111.802 6.36304Z" fill="#231F20"/>
<path d="M113.72 12.0363C111.265 12.0363 109.042 13.8629 109.042 17.2507C109.042 20.6385 111.265 22.5436 113.72 22.5436C116.21 22.5436 118.4 20.6772 118.4 17.2894C118.4 13.9015 116.213 12.0363 113.72 12.0363Z" fill="#53B88C"/>
<path d="M144.48 16.375C144.48 13.4825 142.87 11.8837 140.377 11.8837C137.884 11.8837 136.272 13.4825 136.272 16.375V27.9106H129.714V6.6682H136.272V9.48548C137.571 7.6954 139.878 6.43933 142.754 6.43933C147.702 6.43933 151 9.78956 151 15.5004V27.9106H144.48V16.375Z" fill="#231F20"/>
<path d="M15.5953 3.61452L9.47388 10.2247C8.17661 11.6257 7.46393 13.4636 7.48 15.3664C7.49608 17.2692 8.23972 19.0949 9.56048 20.4742L16.1799 27.3874C17.2288 28.4823 19.0885 27.7452 19.0885 26.2334V4.96622C19.0885 3.14605 16.8369 2.27465 15.5953 3.61452Z" fill="#53B88C"/>
<path d="M0 0C1.53968 0 3.01629 0.607111 4.10501 1.68778C5.19373 2.76844 5.80536 4.23414 5.80536 5.76243V29.5976C4.26569 29.5976 2.78907 28.9905 1.70035 27.9098C0.611635 26.8291 0 25.3634 0 23.8352L0 0Z" fill="#231F20"/>
</g>
<defs>
<clipPath id="clip0_77_446">
<rect width="151" height="38" fill="white"/>
</clipPath>
</defs>
</svg>
