<svg width="330" height="334" viewBox="0 0 330 334" fill="none" xmlns="http://www.w3.org/2000/svg">
<path opacity="0.62" d="M162.445 322.341C251.099 322.341 322.968 250.183 322.968 161.171C322.968 72.1585 251.099 0 162.445 0C73.7904 0 1.92188 72.1585 1.92188 161.171C1.92188 250.183 73.7904 322.341 162.445 322.341Z" fill="#B2B2B2"/>
<path d="M53.3169 205.137L151.937 145.858C157.375 142.574 164.162 142.574 169.6 145.858L268.22 205.137V301.733L53.3578 290.936V205.137H53.3169Z" fill="#EE7D2C"/>
<path d="M249.657 162.32H71.7979V316.676H249.657V162.32Z" fill="#FDECDB"/>
<path d="M79.742 170.769C80.6808 170.379 81.1266 169.298 80.7377 168.355C80.3488 167.413 79.2725 166.965 78.3337 167.356C77.3949 167.746 76.949 168.827 77.3379 169.769C77.7268 170.712 78.8031 171.16 79.742 170.769Z" fill="#EECBAB"/>
<path d="M240.458 169.053C240.458 168.026 241.275 167.205 242.297 167.205C243.32 167.205 244.137 168.026 244.137 169.053C244.137 170.079 243.32 170.9 242.297 170.9C241.275 170.9 240.458 170.079 240.458 169.053Z" fill="#EECBAB"/>
<path d="M242.297 168.847H79.0352V169.258H242.297V168.847Z" fill="#EECBAB"/>
<path d="M79.2805 168.314H78.8716V332.235H79.2805V168.314Z" fill="#EECBAB"/>
<path d="M242.584 168.314H242.175V332.235H242.584V168.314Z" fill="#EECBAB"/>
<path d="M268.179 204.85V334H53.3169V204.85L160.727 269.425L268.179 204.85Z" fill="#F49649"/>
<path d="M53.3169 334L151.732 263.144C157.129 259.244 164.366 259.244 169.763 263.144L268.179 334H53.3169Z" fill="#EE7D2C"/>
<path d="M193.519 183.708H128.672C127.731 183.708 126.955 182.928 126.955 181.984C126.955 181.04 127.731 180.26 128.672 180.26H193.519C194.459 180.26 195.236 181.04 195.236 181.984C195.236 182.928 194.459 183.708 193.519 183.708Z" fill="#EECBAB"/>
<path d="M210.242 190.605H111.99C111.049 190.605 110.272 189.825 110.272 188.881C110.272 187.937 111.049 187.157 111.99 187.157H210.242C211.182 187.157 211.959 187.937 211.959 188.881C211.959 189.825 211.182 190.605 210.242 190.605Z" fill="#EECBAB"/>
<path d="M197.485 211.993H126.382C125.687 211.993 125.156 211.418 125.156 210.762C125.156 210.064 125.728 209.53 126.382 209.53H197.485C198.18 209.53 198.712 210.105 198.712 210.762C198.753 211.459 198.18 211.993 197.485 211.993Z" fill="#EECBAB"/>
<path d="M133.538 218.479H113.503C112.808 218.479 112.276 217.905 112.276 217.248C112.276 216.55 112.849 216.016 113.503 216.016H133.538C134.233 216.016 134.764 216.591 134.764 217.248C134.764 217.946 134.233 218.479 133.538 218.479Z" fill="#EECBAB"/>
<path d="M163.753 218.479H139.548C138.853 218.479 138.321 217.905 138.321 217.248C138.321 216.55 138.894 216.016 139.548 216.016H163.753C164.448 216.016 164.98 216.591 164.98 217.248C165.021 217.946 164.448 218.479 163.753 218.479Z" fill="#EECBAB"/>
<path d="M210.406 218.479H168.537C167.842 218.479 167.311 217.905 167.311 217.248C167.311 216.55 167.883 216.016 168.537 216.016H210.406C211.101 216.016 211.632 216.591 211.632 217.248C211.632 217.946 211.101 218.479 210.406 218.479Z" fill="#EECBAB"/>
<path d="M163.917 226.033H124.992C124.297 226.033 123.766 225.458 123.766 224.801C123.766 224.103 124.338 223.57 124.992 223.57H163.917C164.612 223.57 165.143 224.145 165.143 224.801C165.184 225.499 164.612 226.033 163.917 226.033Z" fill="#EECBAB"/>
<path d="M198.916 226.033H168.251C167.556 226.033 167.024 225.458 167.024 224.801C167.024 224.103 167.597 223.57 168.251 223.57H198.916C199.611 223.57 200.143 224.145 200.143 224.801C200.143 225.499 199.571 226.033 198.916 226.033Z" fill="#EECBAB"/>
<path d="M174.875 241.427C172.544 243.398 170.009 244.999 167.392 246.477C167.597 245.779 167.801 245.04 167.76 244.383C167.719 243.48 166.983 243.111 166.288 242.741C166.125 242.659 165.961 242.536 165.798 242.454C166.084 242.166 166.206 241.797 166.043 241.386C165.757 240.689 164.898 240.812 164.612 241.427C164.571 241.551 164.53 241.674 164.53 241.756C164.407 241.715 164.326 241.633 164.244 241.551C164.694 240.73 165.103 239.909 165.471 239.046C165.552 238.841 165.43 238.636 165.307 238.513C164.694 238.02 163.835 238.184 163.344 238.8C162.731 239.498 162.895 240.565 163.181 241.386C163.181 241.427 163.222 241.51 163.263 241.551C162.69 242.536 162.118 243.521 161.464 244.465C161.423 244.424 161.341 244.342 161.3 244.301C161.136 244.137 160.973 243.932 160.809 243.685C161.096 242.905 161.3 242.084 161.382 241.263C161.423 240.894 161.055 240.689 160.728 240.812C159.869 241.14 159.378 242.002 159.501 242.946C159.542 243.275 159.624 243.562 159.787 243.85C159.583 244.26 159.378 244.671 159.092 245.081C158.929 245.327 159.051 245.615 159.256 245.738C158.969 246.682 158.601 247.667 157.947 248.365C157.416 248.94 156.434 249.351 155.78 248.694C155.371 248.283 155.33 247.585 155.249 247.011C155.126 245.656 155.003 244.219 155.044 242.823C155.085 242.166 155.126 241.51 155.371 240.894C155.494 240.524 155.698 239.95 155.903 240.606C155.985 240.935 155.862 241.427 155.821 241.756C155.78 242.331 156.68 242.413 156.721 241.838C156.802 241.14 157.089 239.703 156.312 239.252C155.658 238.882 155.085 239.416 154.758 239.95C153.695 241.879 154.104 244.547 154.267 246.641C154.39 248.324 155.003 250.377 157.17 249.843C159.174 249.351 159.91 246.805 160.36 245.04C160.401 244.917 160.36 244.835 160.36 244.753C160.36 244.753 160.36 244.712 160.4 244.712C160.482 244.794 160.564 244.876 160.646 244.958C160.768 245.081 160.891 245.163 160.973 245.286C160.768 245.574 160.564 245.861 160.319 246.148C160.196 246.313 160.237 246.559 160.36 246.723C161.055 247.544 162.24 246.928 162.24 245.943C162.24 245.697 162.159 245.492 162.077 245.327C162.731 244.424 163.303 243.48 163.835 242.495C164.121 242.782 164.489 242.946 164.939 242.946C164.98 242.946 164.98 242.946 165.021 242.946C165.266 243.193 165.552 243.398 165.798 243.562C166.043 243.726 166.37 243.808 166.574 243.973C167.024 244.342 166.861 244.753 166.779 245.245C166.656 245.902 166.452 246.559 166.247 247.216C165.348 247.749 164.407 248.406 164.121 249.474C163.835 250.459 164.08 251.444 164.898 252.06C165.143 252.224 165.471 252.101 165.593 251.814C166.125 250.541 166.574 249.227 166.983 247.914C166.983 247.873 167.024 247.832 167.024 247.791C167.842 247.339 168.701 246.928 169.477 246.436C171.604 245.163 173.607 243.726 175.529 242.125C175.938 241.715 175.324 241.017 174.875 241.427ZM163.794 240.196C163.794 239.826 163.999 239.17 164.407 239.17C164.203 239.58 164.039 239.991 163.835 240.401C163.794 240.319 163.794 240.237 163.794 240.196ZM164.939 250.787C164.571 250.048 165.103 249.186 165.716 248.571C165.511 249.309 165.225 250.048 164.939 250.787Z" fill="#F49749"/>
<path d="M44.4851 289.787C43.4629 289.787 42.4407 289.787 41.5003 289.746C41.3777 289.746 41.2959 289.664 41.2959 289.541C41.2959 289.417 41.3777 289.335 41.5003 289.335C42.4407 289.376 43.4629 289.376 44.4851 289.376C44.6078 289.376 44.6895 289.458 44.6895 289.582C44.6895 289.705 44.5669 289.787 44.4851 289.787ZM47.4699 289.746C47.3472 289.746 47.2654 289.664 47.2654 289.541C47.2654 289.417 47.3472 289.335 47.4699 289.335C48.4103 289.335 49.4324 289.294 50.4546 289.253C50.5773 289.253 50.659 289.335 50.659 289.458C50.659 289.582 50.5773 289.664 50.4546 289.664C49.4324 289.705 48.4103 289.746 47.4699 289.746ZM38.5156 289.623C37.4525 289.541 36.4303 289.458 35.5308 289.376C35.4082 289.376 35.3264 289.253 35.3673 289.171C35.3673 289.048 35.4899 288.966 35.5717 289.007C36.5121 289.089 37.4934 289.171 38.5156 289.253C38.6382 289.253 38.72 289.335 38.72 289.458C38.72 289.541 38.5973 289.623 38.5156 289.623ZM53.4394 289.582C53.3167 289.582 53.2349 289.5 53.2349 289.376C53.2349 289.253 53.3167 289.171 53.4394 289.171C54.3798 289.13 55.402 289.089 56.4241 289.007C56.5468 289.007 56.6286 289.089 56.6286 289.212C56.6286 289.335 56.5468 289.417 56.4241 289.417C55.402 289.458 54.3798 289.541 53.4394 289.582ZM59.4089 289.212C59.2862 289.212 59.2045 289.13 59.2045 289.007C59.2045 288.884 59.2862 288.802 59.4089 288.802C60.3902 288.719 61.3715 288.678 62.3937 288.596C62.5163 288.596 62.5981 288.678 62.5981 288.761C62.5981 288.884 62.5163 288.966 62.4345 288.966C61.3715 289.089 60.3902 289.171 59.4089 289.212ZM32.5869 288.966C32.5869 288.966 32.5461 288.966 32.5869 288.966C31.4421 288.761 30.4608 288.514 29.6431 288.268C29.5204 288.227 29.4795 288.104 29.5204 288.022C29.5613 287.898 29.684 287.857 29.7657 287.898C30.5835 288.145 31.5648 288.391 32.6278 288.596C32.7505 288.596 32.7914 288.719 32.7914 288.843C32.7505 288.884 32.6687 288.966 32.5869 288.966ZM65.3375 288.761C65.2149 288.761 65.1331 288.678 65.1331 288.596C65.1331 288.473 65.2149 288.391 65.2966 288.391C66.2779 288.309 67.2592 288.227 68.2814 288.145C68.4041 288.145 68.4858 288.227 68.4858 288.309C68.4858 288.432 68.4041 288.514 68.3223 288.514C67.341 288.596 66.3597 288.678 65.3375 288.761C65.3784 288.761 65.3375 288.761 65.3375 288.761ZM71.307 288.227C71.2253 288.227 71.1026 288.145 71.1026 288.063C71.1026 287.94 71.1844 287.857 71.2662 287.857C72.2475 287.775 73.2287 287.652 74.2509 287.57C74.3736 287.57 74.4554 287.652 74.4554 287.734C74.4554 287.857 74.3736 287.94 74.2918 287.94C73.3105 288.022 72.2883 288.145 71.307 288.227ZM77.2357 287.611C77.1539 287.611 77.0312 287.529 77.0312 287.447C77.0312 287.324 77.113 287.242 77.1948 287.242C78.1761 287.118 79.1574 287.036 80.1796 286.913C80.3022 286.913 80.384 286.995 80.384 287.077C80.384 287.201 80.3022 287.283 80.2204 287.283C79.2392 287.406 78.2579 287.529 77.2357 287.611ZM26.9854 286.995C26.9445 286.995 26.9036 286.995 26.8627 286.954C26.2903 286.544 25.8815 286.051 25.6361 285.517C25.4726 285.148 25.309 284.778 25.1864 284.409C25.1455 284.286 25.2273 284.204 25.309 284.163C25.4317 284.122 25.5135 284.204 25.5544 284.286C25.677 284.655 25.7997 284.984 25.9632 285.353C26.1677 285.805 26.5356 286.256 27.0672 286.626C27.149 286.708 27.1898 286.831 27.1081 286.913C27.1081 286.954 27.0672 286.995 26.9854 286.995ZM83.1643 286.954C83.0825 286.954 82.9599 286.872 82.9599 286.79C82.9599 286.667 83.0417 286.585 83.1234 286.585C84.1047 286.462 85.086 286.338 86.0673 286.215C86.19 286.215 86.2717 286.297 86.2717 286.38C86.2717 286.503 86.19 286.585 86.1082 286.585C85.1678 286.708 84.1865 286.831 83.1643 286.954C83.2052 286.954 83.1643 286.954 83.1643 286.954ZM89.0929 286.215C89.0112 286.215 88.8885 286.133 88.8885 286.051C88.8885 285.928 88.9703 285.846 89.0521 285.846C90.0334 285.723 91.0146 285.6 91.9959 285.476C92.1186 285.476 92.2004 285.558 92.2004 285.641C92.2004 285.723 92.1186 285.846 92.0368 285.846C91.0964 285.969 90.1151 286.092 89.0929 286.215C89.1338 286.215 89.0929 286.215 89.0929 286.215ZM95.0216 285.476C94.9398 285.476 94.858 285.394 94.8171 285.312C94.8171 285.189 94.8989 285.107 94.9807 285.107C95.962 284.984 96.9433 284.861 97.9246 284.696C98.0472 284.696 98.129 284.779 98.129 284.861C98.129 284.984 98.0472 285.066 97.9655 285.066C97.025 285.189 96.0029 285.312 95.0216 285.476ZM100.95 284.655C100.868 284.655 100.787 284.573 100.746 284.491C100.746 284.368 100.787 284.286 100.909 284.286C101.891 284.163 102.872 283.999 103.853 283.875C103.976 283.875 104.058 283.916 104.058 284.04C104.058 284.163 104.017 284.245 103.894 284.245C102.954 284.368 101.932 284.532 100.95 284.655ZM106.838 283.834C106.756 283.834 106.674 283.752 106.634 283.67C106.634 283.547 106.674 283.465 106.797 283.424C107.778 283.301 108.76 283.136 109.741 283.013C109.864 283.013 109.945 283.054 109.986 283.177C109.986 283.301 109.945 283.383 109.823 283.424C108.841 283.547 107.86 283.67 106.838 283.834C106.879 283.834 106.838 283.834 106.838 283.834ZM112.767 282.931C112.685 282.931 112.603 282.849 112.562 282.767C112.562 282.644 112.603 282.562 112.726 282.521C113.707 282.356 114.688 282.233 115.67 282.069C115.792 282.069 115.874 282.11 115.915 282.233C115.915 282.356 115.874 282.439 115.751 282.48C114.77 282.644 113.789 282.808 112.767 282.931ZM118.654 282.069C118.573 282.069 118.491 281.987 118.45 281.905C118.45 281.782 118.491 281.7 118.613 281.659C119.595 281.494 120.576 281.371 121.557 281.207C121.68 281.207 121.762 281.248 121.803 281.371C121.803 281.494 121.762 281.576 121.639 281.617C120.658 281.741 119.677 281.905 118.654 282.069C118.695 282.069 118.654 282.069 118.654 282.069ZM25.1864 281.576C25.0228 281.535 24.9819 281.453 24.9819 281.33C25.1864 280.386 25.6361 279.442 26.3312 278.621C26.413 278.539 26.5356 278.539 26.6174 278.58C26.6992 278.662 26.6992 278.785 26.6583 278.867C26.0041 279.688 25.5952 280.55 25.3908 281.412C25.3908 281.535 25.309 281.576 25.1864 281.576ZM124.542 281.125C124.46 281.125 124.379 281.043 124.338 280.961C124.338 280.837 124.379 280.755 124.501 280.714C125.482 280.55 126.464 280.386 127.445 280.263C127.568 280.263 127.649 280.304 127.69 280.427C127.69 280.55 127.65 280.632 127.527 280.673C126.586 280.796 125.564 280.961 124.542 281.125C124.583 281.125 124.583 281.125 124.542 281.125ZM130.471 280.181C130.389 280.181 130.307 280.099 130.266 280.016C130.266 279.893 130.307 279.811 130.43 279.77C131.411 279.606 132.392 279.442 133.374 279.278C133.496 279.278 133.578 279.319 133.619 279.442C133.619 279.565 133.578 279.647 133.455 279.688C132.474 279.852 131.493 280.016 130.471 280.181ZM136.358 279.195C136.277 279.195 136.195 279.113 136.154 279.031C136.154 278.908 136.195 278.826 136.318 278.785C137.299 278.621 138.28 278.456 139.261 278.292C139.384 278.292 139.466 278.333 139.507 278.456C139.507 278.58 139.466 278.662 139.343 278.703C138.362 278.867 137.381 279.031 136.358 279.195ZM142.246 278.21C142.164 278.21 142.083 278.128 142.042 278.046C142.042 277.923 142.083 277.841 142.205 277.8C143.187 277.635 144.168 277.471 145.149 277.307C145.272 277.307 145.354 277.348 145.395 277.471C145.395 277.594 145.354 277.676 145.231 277.718C144.25 277.882 143.268 278.046 142.246 278.21ZM148.134 277.184C148.052 277.184 147.97 277.102 147.93 277.02C147.93 276.896 147.97 276.814 148.093 276.773C149.115 276.609 150.097 276.445 151.037 276.24C151.16 276.24 151.241 276.281 151.282 276.404C151.282 276.527 151.241 276.609 151.119 276.65C150.137 276.855 149.156 277.02 148.134 277.184ZM28.7027 276.979C28.6209 276.979 28.58 276.938 28.5391 276.896C28.4573 276.814 28.4982 276.691 28.58 276.609C29.316 276.075 30.2155 275.583 31.1968 275.09C31.2786 275.049 31.4012 275.09 31.483 275.172C31.5239 275.254 31.483 275.378 31.4012 275.46C30.4608 275.911 29.5613 276.445 28.8662 276.938C28.7844 276.938 28.7435 276.979 28.7027 276.979ZM154.022 276.158C153.94 276.158 153.858 276.075 153.817 275.993C153.817 275.87 153.858 275.788 153.981 275.747C155.003 275.583 155.984 275.378 156.925 275.213C157.047 275.213 157.129 275.254 157.17 275.378C157.17 275.501 157.129 275.583 157.006 275.624C156.066 275.788 155.085 275.993 154.022 276.158ZM159.909 275.09C159.828 275.09 159.746 275.008 159.705 274.926C159.705 274.803 159.746 274.721 159.869 274.68C160.891 274.474 161.872 274.31 162.812 274.146C162.935 274.146 163.017 274.187 163.058 274.31C163.058 274.433 163.017 274.515 162.894 274.557C161.954 274.721 160.973 274.926 159.909 275.09ZM34.018 274.269C33.9362 274.269 33.8544 274.228 33.8136 274.146C33.7727 274.023 33.8136 273.941 33.9362 273.9C34.8357 273.571 35.7761 273.243 36.7983 272.955C36.921 272.914 37.0027 272.997 37.0436 273.079C37.0845 273.202 37.0028 273.284 36.921 273.325C35.9397 273.612 34.9584 273.941 34.0998 274.269C34.0589 274.269 34.0589 274.269 34.018 274.269ZM165.797 274.023C165.715 274.023 165.634 273.941 165.593 273.859C165.593 273.735 165.634 273.653 165.756 273.612C166.86 273.407 167.882 273.202 168.7 273.079C168.823 273.038 168.905 273.12 168.946 273.243C168.946 273.366 168.905 273.448 168.782 273.489C167.923 273.612 166.942 273.818 165.797 274.023ZM171.685 272.914C171.603 272.914 171.521 272.832 171.48 272.75C171.44 272.627 171.521 272.545 171.644 272.504C171.848 272.463 171.971 272.463 171.971 272.422C172.094 272.381 172.216 272.504 172.216 272.627C172.216 272.832 172.216 272.832 171.685 272.914C171.726 272.914 171.685 272.914 171.685 272.914ZM39.7422 272.545C39.6604 272.545 39.5786 272.504 39.5378 272.381C39.4969 272.258 39.5786 272.175 39.7013 272.134C40.6417 271.888 41.623 271.683 42.6452 271.478C42.7678 271.437 42.8496 271.519 42.8905 271.642C42.9314 271.765 42.8496 271.847 42.7269 271.888C41.7048 272.093 40.7235 272.299 39.824 272.545C39.7831 272.545 39.7422 272.545 39.7422 272.545Z" fill="#B2CBEC"/>
<path d="M178.35 283.424L202.841 269.507L180.476 270.821L182.193 274.598L177.573 279.729L178.35 283.424Z" fill="#B2CBEC"/>
<path d="M202.841 269.507L177.164 274.228L158.479 287.242L202.841 269.507Z" fill="white"/>
<path d="M180.476 270.821L202.841 269.507L179.454 262.61L180.476 270.821Z" fill="white"/>
<path d="M156.884 98.9355L166.165 119.462L132.025 134.979L122.743 114.494L144.454 116.957L156.884 98.9355Z" fill="#54B78C"/>
<path d="M122.743 114.494L156.884 98.9766L146.662 116.259C145.844 117.614 144.291 118.353 142.737 118.066L122.743 114.494Z" fill="#317A5A"/>
<path d="M21.8337 205.384L26.6993 218.479L4.86557 226.649L0 213.553L13.3292 216.016L21.8337 205.384Z" fill="#54B78C"/>
<path d="M0 213.553L21.8337 205.384L14.7603 215.647C14.1878 216.468 13.2065 216.837 12.2661 216.591L0 213.553Z" fill="#317A5A"/>
<path d="M330 211.377L323.131 237.117L280.281 225.622L287.109 199.883L305.141 218.479L330 211.377Z" fill="#54B78C"/>
<path d="M287.109 199.883L329.959 211.377L307.716 219.506C305.958 220.163 303.996 219.629 302.769 218.192L287.109 199.883Z" fill="#317A5A"/>
<path d="M312.173 165.522C323.54 141.958 314.136 113.714 291.239 101.604C266.707 88.6315 236.532 98.9356 224.961 124.224C216.62 142.451 220.504 163.264 233.302 177.222C235.51 179.603 236.818 182.682 237.064 185.925L238.617 206.985C238.617 207.026 238.658 207.067 238.699 207.026L256.076 195.162C258.734 193.355 261.964 192.452 265.194 192.699C284.329 194.176 303.301 183.955 312.173 165.522Z" fill="#4E9E7A"/>
<path d="M265.193 166.63C264.008 169.094 261.064 170.12 258.611 168.929C256.157 167.739 255.135 164.783 256.321 162.32C257.507 159.857 260.451 158.831 262.904 160.021C265.357 161.212 266.379 164.167 265.193 166.63Z" fill="white"/>
<path d="M280.812 172.378L242.133 153.617L243.973 151.113C245.077 149.594 246.713 148.485 248.593 147.952L251.496 147.09L266.134 129.766C268.751 126.317 273.821 125.291 278.155 127.426L278.809 127.754C283.143 129.848 285.555 134.487 284.451 138.674L280.077 161.006L281.221 163.839C281.998 165.645 282.121 167.616 281.63 169.422L280.812 172.378Z" fill="white"/>
<path d="M276.151 131.654C273.821 130.546 272.88 127.713 273.984 125.414C275.088 123.074 277.909 122.13 280.199 123.238C282.53 124.347 283.47 127.179 282.366 129.478C281.262 131.818 278.441 132.804 276.151 131.654ZM278.973 125.784C278.073 125.332 276.928 125.743 276.519 126.646C276.07 127.549 276.478 128.698 277.378 129.109C278.277 129.56 279.422 129.15 279.831 128.247C280.281 127.344 279.913 126.235 278.973 125.784Z" fill="white"/>
<path d="M216.334 104.108L244.137 108.501L225.82 95.5692L224.839 99.5923L218.051 100.742L216.334 104.108Z" fill="#B2CBEC"/>
<path d="M244.137 108.501L221.118 96.144L198.425 94.6661L244.137 108.501Z" fill="white"/>
<path d="M225.82 95.5693L244.137 108.501L230.113 88.5083L225.82 95.5693Z" fill="white"/>
<path d="M41.6233 141.425L62.8028 122.828L41.1735 128.657L43.6268 131.983L40.1514 137.976L41.6233 141.425Z" fill="#B2CBEC"/>
<path d="M62.8028 122.828L38.5976 132.639L22.897 149.183L62.8028 122.828Z" fill="white"/>
<path d="M41.1733 128.657L62.8026 122.828L38.5156 120.816L41.1733 128.657Z" fill="white"/>
<path d="M242.665 29.8039L235.264 51.0689L199.897 38.6711L207.298 17.4061L221.281 34.2375L242.665 29.8039Z" fill="#54B78C"/>
<path d="M207.297 17.4061L242.665 29.8449L223.407 35.2638C221.894 35.6743 220.259 35.1406 219.318 33.868L207.297 17.4061Z" fill="#317A5A"/>
<path d="M84.8816 60.0592L91.7915 76.7264L64.0292 88.3031L57.1602 71.5948L74.4554 74.1811L84.8816 60.0592Z" fill="#54B78C"/>
<path d="M57.1602 71.5948L84.8816 60.0592L76.2545 73.6064C75.5594 74.6738 74.2919 75.2074 73.0653 74.9611L57.1602 71.5948Z" fill="#317A5A"/>
<path d="M138.239 47.0047L159.459 28.4081L137.83 34.2375L140.283 37.5627L136.767 43.5563L138.239 47.0047Z" fill="#B2CBEC"/>
<path d="M159.46 28.4081L135.254 38.2195L119.554 54.7635L159.46 28.4081Z" fill="white"/>
<path d="M137.831 34.2374L159.46 28.408L135.173 26.3965L137.831 34.2374Z" fill="white"/>
<path opacity="0.62" d="M162.445 322.341C251.099 322.341 322.968 250.183 322.968 161.171C322.968 72.1585 251.099 0 162.445 0C73.7904 0 1.92188 72.1585 1.92188 161.171C1.92188 250.183 73.7904 322.341 162.445 322.341Z" fill="#54B78C"/>
<path d="M53.3169 205.137L151.937 145.858C157.375 142.574 164.162 142.574 169.6 145.858L268.22 205.137V301.733L53.3578 290.936V205.137H53.3169Z" fill="#EE7D2C"/>
<path d="M249.657 162.32H71.7979V316.676H249.657V162.32Z" fill="#FDECDB"/>
<path d="M79.742 170.769C80.6808 170.379 81.1266 169.298 80.7377 168.355C80.3488 167.413 79.2725 166.965 78.3337 167.356C77.3949 167.746 76.949 168.827 77.3379 169.769C77.7268 170.712 78.8031 171.16 79.742 170.769Z" fill="#EECBAB"/>
<path d="M240.458 169.053C240.458 168.026 241.275 167.205 242.297 167.205C243.32 167.205 244.137 168.026 244.137 169.053C244.137 170.079 243.32 170.9 242.297 170.9C241.275 170.9 240.458 170.079 240.458 169.053Z" fill="#EECBAB"/>
<path d="M242.297 168.847H79.0352V169.258H242.297V168.847Z" fill="#EECBAB"/>
<path d="M79.2804 168.314H78.8716V332.235H79.2804V168.314Z" fill="#EECBAB"/>
<path d="M242.584 168.314H242.175V332.235H242.584V168.314Z" fill="#EECBAB"/>
<path d="M268.179 204.85V334H53.3169V204.85L160.727 269.425L268.179 204.85Z" fill="#F49649"/>
<path d="M53.3169 334L151.732 263.144C157.129 259.244 164.366 259.244 169.763 263.144L268.179 334H53.3169Z" fill="#EE7D2C"/>
<path d="M193.519 183.708H128.672C127.731 183.708 126.955 182.928 126.955 181.984C126.955 181.04 127.731 180.26 128.672 180.26H193.519C194.459 180.26 195.236 181.04 195.236 181.984C195.236 182.928 194.459 183.708 193.519 183.708Z" fill="#EECBAB"/>
<path d="M210.242 190.605H111.99C111.049 190.605 110.272 189.825 110.272 188.881C110.272 187.937 111.049 187.157 111.99 187.157H210.242C211.182 187.157 211.959 187.937 211.959 188.881C211.959 189.825 211.182 190.605 210.242 190.605Z" fill="#EECBAB"/>
<path d="M197.485 211.993H126.382C125.687 211.993 125.156 211.418 125.156 210.762C125.156 210.064 125.728 209.53 126.382 209.53H197.485C198.18 209.53 198.712 210.105 198.712 210.762C198.753 211.459 198.18 211.993 197.485 211.993Z" fill="#EECBAB"/>
<path d="M133.538 218.479H113.503C112.808 218.479 112.276 217.905 112.276 217.248C112.276 216.55 112.849 216.016 113.503 216.016H133.538C134.233 216.016 134.764 216.591 134.764 217.248C134.764 217.946 134.233 218.479 133.538 218.479Z" fill="#EECBAB"/>
<path d="M163.753 218.479H139.548C138.853 218.479 138.321 217.905 138.321 217.248C138.321 216.55 138.894 216.016 139.548 216.016H163.753C164.448 216.016 164.98 216.591 164.98 217.248C165.021 217.946 164.448 218.479 163.753 218.479Z" fill="#EECBAB"/>
<path d="M210.406 218.479H168.537C167.842 218.479 167.311 217.905 167.311 217.248C167.311 216.55 167.883 216.016 168.537 216.016H210.406C211.101 216.016 211.632 216.591 211.632 217.248C211.632 217.946 211.101 218.479 210.406 218.479Z" fill="#EECBAB"/>
<path d="M163.917 226.033H124.992C124.297 226.033 123.766 225.458 123.766 224.801C123.766 224.103 124.338 223.57 124.992 223.57H163.917C164.612 223.57 165.143 224.145 165.143 224.801C165.184 225.499 164.612 226.033 163.917 226.033Z" fill="#EECBAB"/>
<path d="M198.916 226.033H168.251C167.556 226.033 167.024 225.458 167.024 224.801C167.024 224.103 167.597 223.57 168.251 223.57H198.916C199.611 223.57 200.143 224.145 200.143 224.801C200.143 225.499 199.571 226.033 198.916 226.033Z" fill="#EECBAB"/>
<path d="M174.875 241.427C172.544 243.398 170.009 244.999 167.392 246.477C167.597 245.779 167.801 245.04 167.76 244.383C167.719 243.48 166.983 243.111 166.288 242.741C166.125 242.659 165.961 242.536 165.798 242.454C166.084 242.166 166.206 241.797 166.043 241.386C165.757 240.689 164.898 240.812 164.612 241.427C164.571 241.551 164.53 241.674 164.53 241.756C164.407 241.715 164.326 241.633 164.244 241.551C164.694 240.73 165.103 239.909 165.471 239.046C165.552 238.841 165.43 238.636 165.307 238.513C164.694 238.02 163.835 238.184 163.344 238.8C162.731 239.498 162.895 240.565 163.181 241.386C163.181 241.427 163.222 241.51 163.263 241.551C162.69 242.536 162.118 243.521 161.464 244.465C161.423 244.424 161.341 244.342 161.3 244.301C161.136 244.137 160.973 243.932 160.809 243.685C161.096 242.905 161.3 242.084 161.382 241.263C161.423 240.894 161.055 240.689 160.728 240.812C159.869 241.14 159.378 242.002 159.501 242.946C159.542 243.275 159.624 243.562 159.787 243.85C159.583 244.26 159.378 244.671 159.092 245.081C158.929 245.327 159.051 245.615 159.256 245.738C158.969 246.682 158.601 247.667 157.947 248.365C157.416 248.94 156.434 249.351 155.78 248.694C155.371 248.283 155.33 247.585 155.249 247.011C155.126 245.656 155.003 244.219 155.044 242.823C155.085 242.166 155.126 241.51 155.371 240.894C155.494 240.524 155.698 239.95 155.903 240.606C155.985 240.935 155.862 241.427 155.821 241.756C155.78 242.331 156.68 242.413 156.721 241.838C156.802 241.14 157.089 239.703 156.312 239.252C155.658 238.882 155.085 239.416 154.758 239.95C153.695 241.879 154.104 244.547 154.267 246.641C154.39 248.324 155.003 250.377 157.17 249.843C159.174 249.351 159.91 246.805 160.36 245.04C160.4 244.917 160.36 244.835 160.36 244.753C160.36 244.753 160.36 244.712 160.4 244.712C160.482 244.794 160.564 244.876 160.646 244.958C160.768 245.081 160.891 245.163 160.973 245.286C160.768 245.574 160.564 245.861 160.319 246.148C160.196 246.313 160.237 246.559 160.36 246.723C161.055 247.544 162.24 246.928 162.24 245.943C162.24 245.697 162.159 245.492 162.077 245.327C162.731 244.424 163.303 243.48 163.835 242.495C164.121 242.782 164.489 242.946 164.939 242.946C164.98 242.946 164.98 242.946 165.021 242.946C165.266 243.193 165.552 243.398 165.798 243.562C166.043 243.726 166.37 243.808 166.574 243.973C167.024 244.342 166.861 244.753 166.779 245.245C166.656 245.902 166.452 246.559 166.247 247.216C165.348 247.749 164.407 248.406 164.121 249.474C163.835 250.459 164.08 251.444 164.898 252.06C165.143 252.224 165.47 252.101 165.593 251.814C166.125 250.541 166.574 249.227 166.983 247.914C166.983 247.873 167.024 247.832 167.024 247.791C167.842 247.339 168.701 246.928 169.477 246.436C171.604 245.163 173.607 243.726 175.529 242.125C175.938 241.715 175.324 241.017 174.875 241.427ZM163.794 240.196C163.794 239.826 163.999 239.17 164.407 239.17C164.203 239.58 164.039 239.991 163.835 240.401C163.794 240.319 163.794 240.237 163.794 240.196ZM164.939 250.787C164.571 250.048 165.103 249.186 165.716 248.571C165.511 249.309 165.225 250.048 164.939 250.787Z" fill="#F49749"/>
<path d="M44.4851 289.787C43.4629 289.787 42.4407 289.787 41.5003 289.746C41.3777 289.746 41.2959 289.664 41.2959 289.541C41.2959 289.417 41.3777 289.335 41.5003 289.335C42.4407 289.376 43.4629 289.376 44.4851 289.376C44.6078 289.376 44.6895 289.458 44.6895 289.582C44.6895 289.705 44.5669 289.787 44.4851 289.787ZM47.4699 289.746C47.3472 289.746 47.2654 289.664 47.2654 289.541C47.2654 289.417 47.3472 289.335 47.4699 289.335C48.4103 289.335 49.4324 289.294 50.4546 289.253C50.5773 289.253 50.659 289.335 50.659 289.458C50.659 289.582 50.5773 289.664 50.4546 289.664C49.4324 289.705 48.4103 289.746 47.4699 289.746ZM38.5156 289.623C37.4525 289.541 36.4303 289.458 35.5308 289.376C35.4082 289.376 35.3264 289.253 35.3673 289.171C35.3673 289.048 35.4899 288.966 35.5717 289.007C36.5121 289.089 37.4934 289.171 38.5156 289.253C38.6382 289.253 38.72 289.335 38.72 289.458C38.72 289.541 38.5973 289.623 38.5156 289.623ZM53.4394 289.582C53.3167 289.582 53.2349 289.5 53.2349 289.376C53.2349 289.253 53.3167 289.171 53.4394 289.171C54.3798 289.13 55.402 289.089 56.4241 289.007C56.5468 289.007 56.6286 289.089 56.6286 289.212C56.6286 289.335 56.5468 289.417 56.4241 289.417C55.402 289.458 54.3798 289.541 53.4394 289.582ZM59.4089 289.212C59.2862 289.212 59.2045 289.13 59.2045 289.007C59.2045 288.884 59.2862 288.802 59.4089 288.802C60.3902 288.719 61.3715 288.678 62.3937 288.596C62.5163 288.596 62.5981 288.678 62.5981 288.761C62.5981 288.884 62.5163 288.966 62.4345 288.966C61.3715 289.089 60.3902 289.171 59.4089 289.212ZM32.5869 288.966C32.5869 288.966 32.5461 288.966 32.5869 288.966C31.4421 288.761 30.4608 288.514 29.6431 288.268C29.5204 288.227 29.4795 288.104 29.5204 288.022C29.5613 287.898 29.684 287.857 29.7657 287.898C30.5835 288.145 31.5648 288.391 32.6278 288.596C32.7505 288.596 32.7914 288.719 32.7914 288.843C32.7505 288.884 32.6687 288.966 32.5869 288.966ZM65.3375 288.761C65.2149 288.761 65.1331 288.678 65.1331 288.596C65.1331 288.473 65.2149 288.391 65.2966 288.391C66.2779 288.309 67.2592 288.227 68.2814 288.145C68.4041 288.145 68.4858 288.227 68.4858 288.309C68.4858 288.432 68.4041 288.514 68.3223 288.514C67.341 288.596 66.3597 288.678 65.3375 288.761C65.3784 288.761 65.3375 288.761 65.3375 288.761ZM71.307 288.227C71.2253 288.227 71.1026 288.145 71.1026 288.063C71.1026 287.94 71.1844 287.857 71.2662 287.857C72.2475 287.775 73.2287 287.652 74.2509 287.57C74.3736 287.57 74.4554 287.652 74.4554 287.734C74.4554 287.857 74.3736 287.94 74.2918 287.94C73.3105 288.022 72.2883 288.145 71.307 288.227ZM77.2357 287.611C77.1539 287.611 77.0312 287.529 77.0312 287.447C77.0312 287.324 77.113 287.242 77.1948 287.242C78.1761 287.118 79.1574 287.036 80.1796 286.913C80.3022 286.913 80.384 286.995 80.384 287.077C80.384 287.201 80.3022 287.283 80.2204 287.283C79.2392 287.406 78.2579 287.529 77.2357 287.611ZM26.9854 286.995C26.9445 286.995 26.9036 286.995 26.8627 286.954C26.2903 286.544 25.8815 286.051 25.6361 285.517C25.4726 285.148 25.309 284.778 25.1864 284.409C25.1455 284.286 25.2273 284.204 25.309 284.163C25.4317 284.122 25.5135 284.204 25.5544 284.286C25.677 284.655 25.7997 284.984 25.9632 285.353C26.1677 285.805 26.5356 286.256 27.0672 286.626C27.149 286.708 27.1898 286.831 27.1081 286.913C27.1081 286.954 27.0672 286.995 26.9854 286.995ZM83.1643 286.954C83.0825 286.954 82.9599 286.872 82.9599 286.79C82.9599 286.667 83.0417 286.585 83.1234 286.585C84.1047 286.462 85.086 286.338 86.0673 286.215C86.19 286.215 86.2717 286.297 86.2717 286.38C86.2717 286.503 86.19 286.585 86.1082 286.585C85.1678 286.708 84.1865 286.831 83.1643 286.954C83.2052 286.954 83.1643 286.954 83.1643 286.954ZM89.0929 286.215C89.0112 286.215 88.8885 286.133 88.8885 286.051C88.8885 285.928 88.9703 285.846 89.0521 285.846C90.0334 285.723 91.0146 285.6 91.9959 285.476C92.1186 285.476 92.2004 285.558 92.2004 285.641C92.2004 285.723 92.1186 285.846 92.0368 285.846C91.0964 285.969 90.1151 286.092 89.0929 286.215C89.1338 286.215 89.0929 286.215 89.0929 286.215ZM95.0216 285.476C94.9398 285.476 94.858 285.394 94.8171 285.312C94.8171 285.189 94.8989 285.107 94.9807 285.107C95.962 284.984 96.9433 284.861 97.9246 284.696C98.0472 284.696 98.129 284.779 98.129 284.861C98.129 284.984 98.0472 285.066 97.9655 285.066C97.025 285.189 96.0029 285.312 95.0216 285.476ZM100.95 284.655C100.868 284.655 100.787 284.573 100.746 284.491C100.746 284.368 100.787 284.286 100.909 284.286C101.891 284.163 102.872 283.999 103.853 283.875C103.976 283.875 104.058 283.916 104.058 284.04C104.058 284.163 104.017 284.245 103.894 284.245C102.954 284.368 101.932 284.532 100.95 284.655ZM106.838 283.834C106.756 283.834 106.674 283.752 106.634 283.67C106.634 283.547 106.674 283.465 106.797 283.424C107.778 283.301 108.76 283.136 109.741 283.013C109.864 283.013 109.945 283.054 109.986 283.177C109.986 283.301 109.945 283.383 109.823 283.424C108.841 283.547 107.86 283.67 106.838 283.834C106.879 283.834 106.838 283.834 106.838 283.834ZM112.767 282.931C112.685 282.931 112.603 282.849 112.562 282.767C112.562 282.644 112.603 282.562 112.726 282.521C113.707 282.356 114.688 282.233 115.67 282.069C115.792 282.069 115.874 282.11 115.915 282.233C115.915 282.356 115.874 282.439 115.751 282.48C114.77 282.644 113.789 282.808 112.767 282.931ZM118.654 282.069C118.573 282.069 118.491 281.987 118.45 281.905C118.45 281.782 118.491 281.7 118.613 281.659C119.595 281.494 120.576 281.371 121.557 281.207C121.68 281.207 121.762 281.248 121.803 281.371C121.803 281.494 121.762 281.576 121.639 281.617C120.658 281.741 119.677 281.905 118.654 282.069C118.695 282.069 118.654 282.069 118.654 282.069ZM25.1864 281.576C25.0228 281.535 24.9819 281.453 24.9819 281.33C25.1864 280.386 25.6361 279.442 26.3312 278.621C26.413 278.539 26.5356 278.539 26.6174 278.58C26.6992 278.662 26.6992 278.785 26.6583 278.867C26.0041 279.688 25.5952 280.55 25.3908 281.412C25.3908 281.535 25.309 281.576 25.1864 281.576ZM124.542 281.125C124.46 281.125 124.379 281.043 124.338 280.961C124.338 280.837 124.379 280.755 124.501 280.714C125.482 280.55 126.464 280.386 127.445 280.263C127.568 280.263 127.649 280.304 127.69 280.427C127.69 280.55 127.65 280.632 127.527 280.673C126.586 280.796 125.564 280.961 124.542 281.125C124.583 281.125 124.583 281.125 124.542 281.125ZM130.471 280.181C130.389 280.181 130.307 280.099 130.266 280.016C130.266 279.893 130.307 279.811 130.43 279.77C131.411 279.606 132.392 279.442 133.374 279.278C133.496 279.278 133.578 279.319 133.619 279.442C133.619 279.565 133.578 279.647 133.455 279.688C132.474 279.852 131.493 280.016 130.471 280.181ZM136.358 279.195C136.277 279.195 136.195 279.113 136.154 279.031C136.154 278.908 136.195 278.826 136.318 278.785C137.299 278.621 138.28 278.456 139.261 278.292C139.384 278.292 139.466 278.333 139.507 278.456C139.507 278.58 139.466 278.662 139.343 278.703C138.362 278.867 137.381 279.031 136.358 279.195ZM142.246 278.21C142.164 278.21 142.083 278.128 142.042 278.046C142.042 277.923 142.083 277.841 142.205 277.8C143.187 277.635 144.168 277.471 145.149 277.307C145.272 277.307 145.354 277.348 145.395 277.471C145.395 277.594 145.354 277.676 145.231 277.718C144.25 277.882 143.268 278.046 142.246 278.21ZM148.134 277.184C148.052 277.184 147.97 277.102 147.93 277.02C147.93 276.896 147.97 276.814 148.093 276.773C149.115 276.609 150.097 276.445 151.037 276.24C151.16 276.24 151.241 276.281 151.282 276.404C151.282 276.527 151.241 276.609 151.119 276.65C150.137 276.855 149.156 277.02 148.134 277.184ZM28.7027 276.979C28.6209 276.979 28.58 276.938 28.5391 276.896C28.4573 276.814 28.4982 276.691 28.58 276.609C29.316 276.075 30.2155 275.583 31.1968 275.09C31.2786 275.049 31.4012 275.09 31.483 275.172C31.5239 275.254 31.483 275.378 31.4012 275.46C30.4608 275.911 29.5613 276.445 28.8662 276.938C28.7844 276.938 28.7435 276.979 28.7027 276.979ZM154.022 276.158C153.94 276.158 153.858 276.075 153.817 275.993C153.817 275.87 153.858 275.788 153.981 275.747C155.003 275.583 155.984 275.378 156.925 275.213C157.047 275.213 157.129 275.254 157.17 275.378C157.17 275.501 157.129 275.583 157.006 275.624C156.066 275.788 155.085 275.993 154.022 276.158ZM159.909 275.09C159.828 275.09 159.746 275.008 159.705 274.926C159.705 274.803 159.746 274.721 159.869 274.68C160.891 274.474 161.872 274.31 162.812 274.146C162.935 274.146 163.017 274.187 163.058 274.31C163.058 274.433 163.017 274.515 162.894 274.557C161.954 274.721 160.973 274.926 159.909 275.09ZM34.018 274.269C33.9362 274.269 33.8544 274.228 33.8136 274.146C33.7727 274.023 33.8136 273.941 33.9362 273.9C34.8357 273.571 35.7761 273.243 36.7983 272.955C36.921 272.914 37.0027 272.997 37.0436 273.079C37.0845 273.202 37.0028 273.284 36.921 273.325C35.9397 273.612 34.9584 273.941 34.0998 274.269C34.0589 274.269 34.0589 274.269 34.018 274.269ZM165.797 274.023C165.715 274.023 165.634 273.941 165.593 273.859C165.593 273.735 165.634 273.653 165.756 273.612C166.86 273.407 167.882 273.202 168.7 273.079C168.823 273.038 168.905 273.12 168.946 273.243C168.946 273.366 168.905 273.448 168.782 273.489C167.923 273.612 166.942 273.818 165.797 274.023ZM171.685 272.914C171.603 272.914 171.521 272.832 171.48 272.75C171.44 272.627 171.521 272.545 171.644 272.504C171.848 272.463 171.971 272.463 171.971 272.422C172.094 272.381 172.216 272.504 172.216 272.627C172.216 272.832 172.216 272.832 171.685 272.914C171.726 272.914 171.685 272.914 171.685 272.914ZM39.7422 272.545C39.6604 272.545 39.5786 272.504 39.5378 272.381C39.4969 272.258 39.5786 272.175 39.7013 272.134C40.6417 271.888 41.623 271.683 42.6452 271.478C42.7678 271.437 42.8496 271.519 42.8905 271.642C42.9314 271.765 42.8496 271.847 42.7269 271.888C41.7048 272.093 40.7235 272.299 39.824 272.545C39.7831 272.545 39.7422 272.545 39.7422 272.545Z" fill="#B2CBEC"/>
<path d="M178.35 283.424L202.841 269.507L180.476 270.821L182.193 274.598L177.573 279.729L178.35 283.424Z" fill="#B2CBEC"/>
<path d="M202.841 269.507L177.164 274.228L158.479 287.242L202.841 269.507Z" fill="white"/>
<path d="M180.476 270.821L202.841 269.507L179.454 262.61L180.476 270.821Z" fill="white"/>
<path d="M156.884 98.9355L166.165 119.462L132.025 134.979L122.743 114.494L144.454 116.957L156.884 98.9355Z" fill="#54B78C"/>
<path d="M122.743 114.494L156.884 98.9766L146.662 116.26C145.844 117.614 144.291 118.353 142.737 118.066L122.743 114.494Z" fill="#317A5A"/>
<path d="M21.8337 205.384L26.6993 218.479L4.86557 226.649L0 213.553L13.3292 216.016L21.8337 205.384Z" fill="#54B78C"/>
<path d="M0 213.553L21.8337 205.384L14.7603 215.647C14.1878 216.468 13.2065 216.837 12.2661 216.591L0 213.553Z" fill="#317A5A"/>
<path d="M330 211.377L323.131 237.117L280.281 225.622L287.109 199.883L305.141 218.479L330 211.377Z" fill="#54B78C"/>
<path d="M287.109 199.883L329.959 211.377L307.716 219.506C305.958 220.163 303.996 219.629 302.769 218.192L287.109 199.883Z" fill="#317A5A"/>
<path d="M312.173 165.522C323.54 141.958 314.136 113.714 291.239 101.604C266.707 88.6315 236.532 98.9356 224.961 124.224C216.62 142.451 220.504 163.264 233.302 177.222C235.51 179.603 236.818 182.682 237.064 185.925L238.617 206.985C238.617 207.026 238.658 207.067 238.699 207.026L256.076 195.162C258.734 193.355 261.964 192.452 265.194 192.699C284.329 194.176 303.301 183.955 312.173 165.522Z" fill="#4E9E7A"/>
<path d="M265.193 166.63C264.008 169.094 261.064 170.12 258.611 168.929C256.157 167.739 255.135 164.783 256.321 162.32C257.507 159.857 260.451 158.831 262.904 160.021C265.357 161.212 266.379 164.167 265.193 166.63Z" fill="white"/>
<path d="M280.812 172.378L242.133 153.617L243.973 151.113C245.077 149.594 246.713 148.485 248.593 147.952L251.496 147.09L266.134 129.766C268.751 126.317 273.821 125.291 278.155 127.426L278.809 127.754C283.143 129.848 285.555 134.487 284.451 138.674L280.077 161.006L281.221 163.839C281.998 165.645 282.121 167.616 281.63 169.422L280.812 172.378Z" fill="white"/>
<path d="M276.151 131.654C273.821 130.546 272.88 127.713 273.984 125.414C275.088 123.074 277.909 122.13 280.199 123.238C282.53 124.347 283.47 127.179 282.366 129.478C281.262 131.818 278.441 132.804 276.151 131.654ZM278.973 125.784C278.073 125.332 276.928 125.743 276.519 126.646C276.07 127.549 276.478 128.698 277.378 129.109C278.277 129.56 279.422 129.15 279.831 128.247C280.281 127.344 279.913 126.235 278.973 125.784Z" fill="white"/>
<path d="M216.334 104.108L244.137 108.501L225.82 95.5692L224.839 99.5923L218.051 100.742L216.334 104.108Z" fill="#B2CBEC"/>
<path d="M244.137 108.501L221.118 96.144L198.425 94.6661L244.137 108.501Z" fill="white"/>
<path d="M225.82 95.5693L244.137 108.501L230.113 88.5083L225.82 95.5693Z" fill="white"/>
<path d="M41.6233 141.425L62.8028 122.828L41.1735 128.657L43.6268 131.983L40.1514 137.976L41.6233 141.425Z" fill="#B2CBEC"/>
<path d="M62.8028 122.828L38.5976 132.639L22.897 149.183L62.8028 122.828Z" fill="white"/>
<path d="M41.1733 128.657L62.8026 122.828L38.5156 120.816L41.1733 128.657Z" fill="white"/>
<path d="M242.665 29.8039L235.264 51.0689L199.897 38.6711L207.298 17.4061L221.281 34.2375L242.665 29.8039Z" fill="#54B78C"/>
<path d="M207.297 17.4061L242.665 29.8449L223.407 35.2638C221.894 35.6743 220.259 35.1406 219.318 33.868L207.297 17.4061Z" fill="#317A5A"/>
<path d="M84.8816 60.0592L91.7915 76.7264L64.0292 88.3031L57.1602 71.5948L74.4554 74.1811L84.8816 60.0592Z" fill="#54B78C"/>
<path d="M57.1602 71.5948L84.8816 60.0592L76.2544 73.6064C75.5594 74.6738 74.2919 75.2074 73.0653 74.9611L57.1602 71.5948Z" fill="#317A5A"/>
<path d="M138.239 47.0047L159.459 28.4081L137.83 34.2375L140.283 37.5627L136.767 43.5563L138.239 47.0047Z" fill="#B2CBEC"/>
<path d="M159.46 28.4081L135.254 38.2195L119.554 54.7635L159.46 28.4081Z" fill="white"/>
<path d="M137.831 34.2374L159.46 28.408L135.173 26.3965L137.831 34.2374Z" fill="white"/>
</svg>
