<svg width="250" height="63" viewBox="0 0 250 63" fill="none" xmlns="http://www.w3.org/2000/svg">
<g clip-path="url(#clip0_87_579)">
<path d="M54.9916 26.7082V46.273H44.1327V1.96667H54.9916V21.405L69.8507 1.96667H82.6129L65.3415 23.678L83.242 46.273H69.9797L54.9916 26.7082Z" fill="white"/>
<path d="M101.854 10.5493C107.125 10.5493 110.872 12.9488 112.775 16.0395V11.0517H123.634V46.2694H112.775V41.2815C110.804 44.374 107.062 46.7735 101.791 46.7735C93.1545 46.7735 86.2331 39.7032 86.2331 28.6035C86.2331 17.5038 93.1545 10.5493 101.854 10.5493ZM105.03 19.955C100.965 19.955 97.2838 22.9833 97.2838 28.5999C97.2838 34.2166 100.965 37.3785 105.03 37.3785C109.152 37.3785 112.775 34.2843 112.775 28.6676C112.775 23.051 109.157 19.955 105.03 19.955Z" fill="white"/>
<path d="M155.956 11.0551H167.704L145.481 62.9999H133.796L141.925 45.074L127.511 11.0498H139.639L147.831 33.0765L155.956 11.0551Z" fill="white"/>
<path d="M185.103 10.5493C190.374 10.5493 194.119 12.9488 196.035 16.0395V11.0517H206.892V46.2694H196.035V41.2815C194.064 44.374 190.32 46.7735 185.049 46.7735C176.414 46.7735 169.493 39.7032 169.493 28.6035C169.493 17.5038 176.405 10.5493 185.103 10.5493Z" fill="white"/>
<path d="M188.279 19.955C184.214 19.955 180.533 22.9833 180.533 28.5999C180.533 34.2166 184.214 37.375 188.279 37.375C192.401 37.375 196.026 34.2807 196.026 28.6641C196.026 23.0474 192.406 19.955 188.279 19.955Z" fill="#53B88C"/>
<path d="M239.206 27.1481C239.206 22.3527 236.539 19.702 232.411 19.702C228.284 19.702 225.615 22.3527 225.615 27.1481V46.2729H214.758V11.0552H225.615V15.726C227.766 12.7582 231.585 10.6758 236.347 10.6758C244.539 10.6758 250 16.2301 250 25.6981V46.2729H239.206V27.1481Z" fill="white"/>
<path d="M25.8201 5.99255L15.6853 16.9516C13.5375 19.2743 12.3575 22.3213 12.3841 25.4759C12.4108 28.6306 13.642 31.6574 15.8286 33.9441L26.7879 45.4054C28.5245 47.2206 31.6035 45.9986 31.6035 43.4922V8.23352C31.6035 5.21587 27.8758 3.77117 25.8201 5.99255Z" fill="white"/>
<path d="M0 0C2.54914 0 4.99387 1.00653 6.79638 2.79815C8.59889 4.58978 9.61153 7.01975 9.61153 9.5535V49.0697C7.06239 49.0697 4.61766 48.0631 2.81515 46.2715C1.01264 44.4799 0 42.0499 0 39.5162L0 0Z" fill="white"/>
</g>
<defs>
<clipPath id="clip0_87_579">
<rect width="250" height="63" fill="white"/>
</clipPath>
</defs>
</svg>
